<svg xmlns="http://www.w3.org/2000/svg" width="16" height="26" viewBox="0 0 16 26" fill="none">
  <g clip-path="url(#clip0_1033_161)">
    <path d="M2.3317 25.9094C1.0772 25.9094 0.0574951 24.8897 0.0574951 23.6375V10.8118C0.0574951 10.5493 0.269263 10.3376 0.531671 10.3376H2.00944V6.04927C2.00944 2.74615 4.69798 0.0576172 8.0011 0.0576172C11.3042 0.0576172 13.9905 2.74615 13.9905 6.04927V10.3376H15.4682C15.7306 10.3376 15.9424 10.5493 15.9424 10.8118V12.1376C15.9424 12.4 15.7306 12.6118 15.4682 12.6118C15.2058 12.6118 14.9941 12.3977 14.9941 12.1376V11.2859H13.583L13.5278 11.2905H13.5048L13.4702 11.2859H2.55037L2.49513 11.2905H2.47211L2.43758 11.2859H1.00585V23.6352C1.00585 24.3649 1.59972 24.9588 2.3294 24.9588H13.6705C14.4002 24.9588 14.9941 24.3649 14.9941 23.6352V14.8607C14.9941 14.5983 15.2058 14.3865 15.4682 14.3865C15.7306 14.3865 15.9424 14.5983 15.9424 14.8607V23.6352C15.9424 24.8874 14.9227 25.9071 13.6682 25.9071H2.3317V25.9094ZM8.0011 1.00597C5.22049 1.00597 2.9601 3.26867 2.9601 6.04927V10.3376H13.0421V6.04927C13.0421 3.26867 10.7817 1.00597 8.0011 1.00597ZM8.0011 20.995C7.73869 20.995 7.52692 20.7833 7.52692 20.5209V18.0556L7.39342 17.9935C6.87551 17.7541 6.53944 17.2339 6.53944 16.6676C6.53944 15.862 7.19546 15.2059 8.0011 15.2059C8.80674 15.2059 9.46276 15.862 9.46276 16.6676C9.46276 17.2339 9.129 17.7564 8.61108 17.9935L8.47758 18.0556V20.5209C8.47758 20.7833 8.26581 20.995 8.0034 20.995H8.0011ZM8.0011 16.1543C7.71798 16.1543 7.4901 16.3845 7.4901 16.6653C7.4901 16.9461 7.72028 17.1763 8.0011 17.1763C8.28192 17.1763 8.51211 16.9461 8.51211 16.6653C8.51211 16.3845 8.28192 16.1543 8.0011 16.1543Z" fill="#1E2B4B"/>
    <path d="M2.3317 25.9094C1.0772 25.9094 0.0574951 24.8897 0.0574951 23.6375V10.8118C0.0574951 10.5493 0.269263 10.3376 0.531671 10.3376H2.00944V6.04927C2.00944 2.74615 4.69798 0.0576172 8.0011 0.0576172C11.3042 0.0576172 13.9905 2.74615 13.9905 6.04927V10.3376H15.4682C15.7306 10.3376 15.9424 10.5493 15.9424 10.8118V12.1376C15.9424 12.4 15.7306 12.6118 15.4682 12.6118C15.2058 12.6118 14.9941 12.3977 14.9941 12.1376V11.2859H13.583L13.5278 11.2905H13.5048L13.4702 11.2859H2.55037L2.49513 11.2905H2.47211L2.43758 11.2859H1.00585V23.6352C1.00585 24.3649 1.59972 24.9588 2.3294 24.9588H13.6705C14.4002 24.9588 14.9941 24.3649 14.9941 23.6352V14.8607C14.9941 14.5983 15.2058 14.3865 15.4682 14.3865C15.7306 14.3865 15.9424 14.5983 15.9424 14.8607V23.6352C15.9424 24.8874 14.9227 25.9071 13.6682 25.9071H2.3317V25.9094ZM8.0011 1.00597C5.22049 1.00597 2.9601 3.26867 2.9601 6.04927V10.3376H13.0421V6.04927C13.0421 3.26867 10.7817 1.00597 8.0011 1.00597ZM8.0011 20.995C7.73869 20.995 7.52692 20.7833 7.52692 20.5209V18.0556L7.39342 17.9935C6.87551 17.7541 6.53944 17.2339 6.53944 16.6676C6.53944 15.862 7.19546 15.2059 8.0011 15.2059C8.80674 15.2059 9.46276 15.862 9.46276 16.6676C9.46276 17.2339 9.129 17.7564 8.61108 17.9935L8.47758 18.0556V20.5209C8.47758 20.7833 8.26581 20.995 8.0034 20.995H8.0011ZM8.0011 16.1543C7.71798 16.1543 7.49009 16.3845 7.49009 16.6653C7.49009 16.9461 7.72028 17.1763 8.0011 17.1763C8.28192 17.1763 8.51211 16.9461 8.51211 16.6653C8.51211 16.3845 8.28192 16.1543 8.0011 16.1543Z" stroke="#1E2B4B" stroke-width="0.115091" stroke-miterlimit="10"/>
  </g>
  <defs>
    <clipPath id="clip0_1033_161">
      <rect width="16" height="25.9669" fill="white"/>
    </clipPath>
  </defs>
</svg>