<svg xmlns="http://www.w3.org/2000/svg" width="27" height="28" viewBox="0 0 27 28" fill="none">
  <g clip-path="url(#clip0_1033_167)">
    <path d="M13.9263 24.8462L13.982 25.0279L13.1967 25.8131C13.1967 25.8131 13.1762 25.8336 13.1645 25.8424L13.1557 25.8512C12.3969 26.5925 11.3977 26.9997 10.3341 26.9997C9.27054 26.9997 8.23332 26.5778 7.46858 25.8131L7.09354 25.4351C6.84742 25.189 6.8064 24.8052 6.99978 24.5151C7.04959 24.4389 8.25383 22.4934 6.35811 20.5948C4.53565 18.7752 2.8802 19.9795 2.69853 20.123C2.40553 20.3516 1.98654 20.3281 1.72284 20.0674L1.18665 19.5312C0.421921 18.7664 0 17.7468 0 16.6656C0 15.5844 0.421921 14.5677 1.18665 13.803L5.91861 9.07104L6.95583 10.1053L5.42344 11.6407L4.38622 12.6779L2.22387 14.8402C1.73456 15.3266 1.465 15.9771 1.465 16.6656C1.465 17.3542 1.73456 18.0046 2.22387 18.4939L2.34107 18.6141C3.50429 18.0017 5.51134 17.6765 7.3924 19.5605C9.2764 21.4415 9.042 23.5629 8.51167 24.7817C8.99805 25.2681 9.64558 25.5347 10.3341 25.5347C11.0227 25.5347 11.6731 25.2652 12.1595 24.7759L12.3851 24.5532L12.5961 24.3422L13.1352 23.8031L13.3462 23.5921C13.519 23.7299 13.648 23.9203 13.7095 24.1313L13.9263 24.8462Z" fill="#1E2B4B"/>
    <path d="M20.3518 17.1991L21.0814 17.9287L21.5414 17.4687L25.8133 13.1967C26.5781 12.432 27 11.4124 27 10.3312C27 9.25003 26.5781 8.23332 25.8133 7.46858L25.2771 6.93239C25.0164 6.66869 24.5945 6.64818 24.3044 6.87672C24.1198 7.02029 22.4643 8.22453 20.6448 6.40206C18.7462 4.50635 19.9533 2.56082 20.0031 2.48171C20.1936 2.19164 20.1555 1.80781 19.9094 1.56169L19.5314 1.18665C18.7667 0.421921 17.75 0 16.6688 0C15.5876 0 14.568 0.421921 13.8032 1.18665L9.07129 5.91861L10.1085 6.95583L11.7991 5.26229L12.8363 4.228L14.8405 2.22094C15.3298 1.73456 15.9773 1.465 16.6688 1.465C17.3603 1.465 18.0019 1.73163 18.4913 2.21801C17.9609 3.4369 17.7236 5.55529 19.6076 7.43928C21.4916 9.32328 23.4957 8.99805 24.6589 8.38568L24.779 8.50581C25.2654 8.99219 25.535 9.64265 25.535 10.3312C25.535 11.0198 25.2654 11.6702 24.779 12.1595L22.772 14.1636L21.7377 15.2009L20.9583 15.9803L20.1936 16.7421L20.3518 17.1991Z" fill="#1E2B4B"/>
    <path d="M22.5229 15.6812C22.3354 15.6812 22.1479 15.6109 22.0043 15.4673L11.5325 4.9955C11.2454 4.70836 11.2454 4.24542 11.5325 3.95828C11.8196 3.67113 12.2826 3.67113 12.5697 3.95828L23.0416 14.4301C23.3287 14.7173 23.3287 15.1802 23.0416 15.4673C22.898 15.6109 22.7105 15.6812 22.5229 15.6812Z" fill="#1E2B4B"/>
    <path d="M4.78811 11.0075L3.7522 12.0435L5.16311 13.4544L6.19902 12.4185L4.78811 11.0075Z" fill="#1E2B4B"/>
    <path d="M22.7867 23.6421L21.6528 24.4274L21.3568 25.4705C21.2308 25.9481 20.7943 26.2791 20.2991 26.2791H18.8751L17.9229 27.0732C17.7178 27.2431 17.4658 27.331 17.2138 27.331C16.997 27.331 16.7831 27.2666 16.5956 27.1435L15.4353 26.3553L14.2252 26.4374C13.7945 26.4696 13.3813 26.2381 13.1733 25.8602C13.1704 25.8543 13.1675 25.8484 13.1645 25.8426C13.1323 25.7869 13.1059 25.7254 13.0883 25.658L12.8452 24.8464L12.7192 24.4303L12.5961 24.3424L11.594 23.6451C11.2044 23.3784 11.0286 22.8979 11.1545 22.4438L11.5325 21.096L11.0813 19.7804C10.9114 19.3028 11.093 18.7754 11.5179 18.5L12.6957 17.7352L13.0737 16.5105C13.2143 16.0476 13.648 15.7253 14.1256 15.7253H15.3444L15.784 15.3473L16.3436 14.8756C16.7216 14.5445 17.2753 14.5181 17.6885 14.8023L18.9103 15.6491L20.009 15.567C20.3811 15.5377 20.7357 15.6989 20.9583 15.9802C21.0316 16.0739 21.0931 16.1823 21.1341 16.2995L21.5414 17.4686L21.5912 17.6151L22.7369 18.5439C23.0709 18.8135 23.2144 19.2559 23.1119 19.6661L22.9713 20.214L21.9692 19.9591L22.1069 19.4112C22.1098 19.3907 22.1069 19.3643 22.0864 19.3497L20.9642 18.4502C20.8031 18.3183 20.6829 18.1513 20.6155 17.955L20.3518 17.1991L20.1936 16.742L20.1585 16.6424C20.1467 16.616 20.1321 16.5984 20.094 16.6013L19.0392 16.6951C18.7784 16.7156 18.5264 16.6482 18.3184 16.5017L17.0966 15.6549C17.0732 15.6344 17.0468 15.6403 17.0233 15.6579L16.0652 16.4929C16.0301 16.5252 15.9949 16.5486 15.9539 16.572C15.7781 16.698 15.5642 16.7625 15.3444 16.7625H14.1256C14.1021 16.7625 14.0758 16.7801 14.0699 16.8035L13.7154 17.999C13.6392 18.2451 13.481 18.4619 13.2583 18.6055L12.6606 18.9952L12.0834 19.3702C12.0599 19.3819 12.0511 19.4112 12.0599 19.4376L12.5111 20.718C12.5844 20.929 12.5932 21.1546 12.5316 21.3743L12.2123 22.517L12.1507 22.725C12.1478 22.7514 12.1537 22.7749 12.1771 22.7895L13.2817 23.5425C13.3052 23.5572 13.3257 23.5747 13.3462 23.5923C13.5191 23.73 13.648 23.9205 13.7095 24.1315L13.9263 24.8464L13.982 25.028L14.0845 25.3591C14.0904 25.3884 14.1226 25.406 14.1431 25.4031L15.3181 25.3122C15.5642 25.2888 15.8162 25.3562 16.0184 25.4968L16.3172 25.7019L17.1757 26.285C17.2021 26.2997 17.2314 26.2997 17.2519 26.2791L18.1631 25.5027C18.3008 25.3884 18.459 25.3122 18.629 25.2712C18.711 25.2536 18.7931 25.2449 18.8751 25.2449H20.2991C20.3284 25.2449 20.3489 25.2243 20.3548 25.2009L20.6273 24.193C20.6946 23.9439 20.8499 23.7242 21.058 23.5777L22.1948 22.7895C22.2182 22.7749 22.2241 22.7514 22.2182 22.725L21.8549 21.345L22.8599 21.0813L23.2232 22.4613C23.3346 22.9067 23.1617 23.3784 22.7867 23.6421Z" fill="#1E2B4B"/>
    <path d="M19.9123 18.869L19.6251 19.159L18.7256 20.0761H18.7227L17.8319 20.9844L14.8463 24.0229L14.1079 23.2962L14.5533 22.845L15.5817 21.799L17.1024 20.2519L18.2187 19.1151L18.3711 18.9598L19.1739 18.1423L19.9123 18.869Z" fill="#1E2B4B"/>
    <path d="M18.5263 21.4504C17.6766 21.4504 16.988 22.139 16.988 22.9887C16.988 23.8384 17.6766 24.524 18.5263 24.524C18.7255 24.524 18.916 24.483 19.0889 24.4156C19.4873 24.2574 19.8038 23.938 19.9561 23.5366C20.0235 23.3667 20.0587 23.1821 20.0587 22.9887C20.0587 22.139 19.3701 21.4504 18.5263 21.4504ZM18.5263 23.4868C18.2479 23.4868 18.0253 23.2612 18.0253 22.9887C18.0253 22.7162 18.2479 22.4877 18.5263 22.4877C18.8046 22.4877 19.0215 22.7103 19.0215 22.9887C19.0215 23.267 18.7988 23.4868 18.5263 23.4868Z" fill="#1E2B4B"/>
    <path d="M16.4168 17.9109H16.4109C16.1706 17.7439 15.8747 17.6472 15.5612 17.6472C15.4821 17.6472 15.4059 17.6531 15.3327 17.6648C14.5943 17.7732 14.0259 18.4149 14.0259 19.1825C14.0259 20.0264 14.7144 20.7149 15.5612 20.7149C15.5788 20.7149 15.5993 20.7149 15.6169 20.712C16.2175 20.6915 16.7303 20.3223 16.9617 19.8008C17.0467 19.6133 17.0936 19.4023 17.0936 19.1825C17.0936 18.6522 16.824 18.1863 16.4168 17.9109ZM15.5612 19.6777C15.2858 19.6777 15.0631 19.458 15.0631 19.1825C15.0631 18.9071 15.2858 18.6844 15.5612 18.6844C15.8366 18.6844 16.0593 18.9071 16.0593 19.1825C16.0593 19.458 15.8366 19.6777 15.5612 19.6777Z" fill="#1E2B4B"/>
  </g>
  <defs>
    <clipPath id="clip0_1033_167">
      <rect width="27" height="27.3311" fill="white"/>
    </clipPath>
  </defs>
</svg>