<?xml version="1.0" encoding="UTF-8"?>
<svg id="Capa_2" data-name="Capa 2" xmlns="http://www.w3.org/2000/svg" width="13.76" height="13.05" viewBox="0 0 13.76 13.05">
  <defs>
    <style>
      .cls-1 {
        fill: #cbff66;
      }
    </style>
  </defs>
  <g id="Capa_2-2" data-name="Capa 2">
    <g>
      <path class="cls-1" d="M0,.69c0-.16,.06-.33,.19-.46C.44-.03,.85-.03,1.11,.22L7.25,6.2,12.61,.22c.24-.27,.66-.29,.93-.05,.27,.24,.29,.66,.05,.93L7.77,7.58c-.12,.13-.29,.21-.47,.22-.18,0-.35-.06-.48-.19L.2,1.16C.07,1.03,0,.86,0,.69Z"/>
      <path class="cls-1" d="M0,5.94c0-.16,.06-.33,.19-.46,.25-.26,.67-.26,.93-.01l6.14,5.98,5.36-5.98c.24-.27,.66-.29,.93-.05,.27,.24,.29,.66,.05,.93l-5.82,6.49c-.12,.13-.29,.21-.47,.22-.18,0-.35-.06-.48-.19L.2,6.41C.07,6.28,0,6.11,0,5.94Z"/>
    </g>
  </g>
</svg>