<svg width="21" height="15" viewBox="0 0 21 15" fill="none" xmlns="http://www.w3.org/2000/svg">
<path fill-rule="evenodd" clip-rule="evenodd" d="M8.87799 10.2661L8.87737 4.274L14.2811 7.2804L8.87799 10.2661ZM20.743 3.23566C20.743 3.23566 20.5474 1.76612 19.948 1.11899C19.1874 0.26925 18.3349 0.265251 17.9442 0.215933C15.1455 0 10.9474 0 10.9474 0H10.9386C10.9386 0 6.74049 0 3.94174 0.215933C3.55049 0.265251 2.69862 0.26925 1.93737 1.11899C1.33799 1.76612 1.14299 3.23566 1.14299 3.23566C1.14299 3.23566 0.942993 4.96179 0.942993 6.68725V8.30542C0.942993 10.0315 1.14299 11.757 1.14299 11.757C1.14299 11.757 1.33799 13.2266 1.93737 13.8737C2.69862 14.7234 3.69799 14.6968 4.14299 14.7854C5.74299 14.9493 10.943 15 10.943 15C10.943 15 15.1455 14.9933 17.9442 14.7774C18.3349 14.7274 19.1874 14.7234 19.948 13.8737C20.5474 13.2266 20.743 11.757 20.743 11.757C20.743 11.757 20.943 10.0315 20.943 8.30542V6.68725C20.943 4.96179 20.743 3.23566 20.743 3.23566Z" fill="white"/>
</svg>
