<svg width="20" height="19" viewBox="0 0 20 19" fill="none" xmlns="http://www.w3.org/2000/svg">
<path fill-rule="evenodd" clip-rule="evenodd" d="M3.13703 0.0883789C1.92522 0.0883789 0.942993 1.08749 0.942993 2.32073V16.6796C0.942993 17.9123 1.92522 18.9119 3.13703 18.9119H17.2069C18.4187 18.9119 19.401 17.9123 19.401 16.6796V2.32073C19.401 1.08749 18.4187 0.0883789 17.2069 0.0883789H3.13703ZM14.7851 2.44092H16.5154C16.8341 2.44092 17.0924 2.7043 17.0924 3.02878V4.79392C17.0924 5.1184 16.8341 5.38179 16.5154 5.38179H14.7851C14.4669 5.38179 14.2086 5.1184 14.2086 4.79392V3.02878C14.2086 2.7043 14.4669 2.44092 14.7851 2.44092ZM13.7414 9.52204C13.7414 11.5167 12.152 13.1334 10.1915 13.1334C8.2316 13.1334 6.64221 11.5167 6.64221 9.52204C6.64221 7.52792 8.2316 5.91064 10.1915 5.91064C12.152 5.91064 13.7414 7.52792 13.7414 9.52204ZM17.0938 17.1474H3.25042C2.93173 17.1474 2.67346 16.8835 2.67346 16.559V7.73535H4.98077C4.68021 8.17638 4.57852 8.99939 4.57852 9.52205C4.57852 12.6719 7.09778 15.2349 10.1935 15.2349C13.2897 15.2349 15.809 12.6719 15.809 9.52205C15.809 8.99939 15.736 8.18921 15.3634 7.73535H17.6707V16.559C17.6707 16.8835 17.4125 17.1474 17.0938 17.1474Z" fill="white"/>
</svg>
