<svg width="21" height="19" viewBox="0 0 21 19" fill="none" xmlns="http://www.w3.org/2000/svg">
<path fill-rule="evenodd" clip-rule="evenodd" d="M17.6675 2.00434C16.8935 1.13019 15.7873 0.583984 14.5626 0.583984C12.215 0.583984 10.3099 2.59968 10.3099 5.0856C10.3099 5.43869 10.3464 5.78092 10.4195 6.11059C6.88379 5.92261 3.7495 4.1326 1.65001 1.40558C1.28348 2.0729 1.0742 2.84707 1.0742 3.67152C1.0742 5.23243 1.82496 6.61051 2.96717 7.41782C2.27066 7.39611 1.61346 7.19157 1.03876 6.85676V6.91161C1.03876 9.09357 2.50542 10.9139 4.45321 11.3258C4.09665 11.4315 3.72016 11.4846 3.33204 11.4846C3.05797 11.4846 2.79055 11.4572 2.53144 11.4046C3.07292 13.1924 4.64311 14.4945 6.50509 14.5293C5.0495 15.7371 3.21411 16.457 1.22147 16.457C0.878198 16.457 0.538802 16.4365 0.206604 16.3953C2.08906 17.6706 4.32642 18.4162 6.72821 18.4162C14.5543 18.4162 18.8324 11.5578 18.8324 5.60837C18.8324 5.4124 18.8291 5.217 18.8219 5.02503C19.6529 4.39027 20.3749 3.59782 20.943 2.6951C20.1811 3.05276 19.3606 3.29501 18.5002 3.40356C19.3789 2.84707 20.0532 1.96492 20.371 0.913649C19.5483 1.429 18.6392 1.8038 17.6675 2.00434Z" fill="white"/>
</svg>
