<svg width="24" height="24" viewBox="0 0 24 24" fill="none" xmlns="http://www.w3.org/2000/svg">
<g clip-path="url(#clip0_325_34)">
<path d="M15.2604 18.0325L11.0953 22.1977C9.95552 23.3374 8.10747 23.3374 6.96768 22.1977L6.637 21.867C6.637 21.867 8.06995 19.6883 5.98972 17.608C3.90949 15.5278 1.9137 17.1437 1.9137 17.1437L1.4423 16.6723C0.302517 15.5325 0.302517 13.6844 1.4423 12.5447L5.60745 8.37952" stroke="#1F2A4C" stroke-width="1.24008" stroke-linejoin="round"/>
<path d="M8.37952 5.60513L12.5423 1.43998C13.6821 0.300198 15.5301 0.300198 16.6699 1.43998L17.0006 1.77066C17.0006 1.77066 15.5677 3.94939 17.6479 6.02961C19.7281 8.10984 21.7239 6.49397 21.7239 6.49397L22.1953 6.96536C23.3351 8.10515 23.3351 9.9532 22.1953 11.093L18.0302 15.2581" stroke="#1F2A4C" stroke-width="1.24008" stroke-linejoin="round"/>
<path d="M10.5442 3.88141L19.7563 13.0958" stroke="#1F2A4C" stroke-width="1.24008" stroke-linecap="round" stroke-linejoin="round"/>
<path d="M6.4353 12.8191L7.93156 14.3154" stroke="#1F2A4C" stroke-width="1.24008" stroke-linejoin="round"/>
<path d="M9.51227 15.8984L11.0085 17.3923" stroke="#1F2A4C" stroke-width="1.24008" stroke-linejoin="round"/>
<path d="M12.4133 18.7971L13.4546 19.8384" stroke="#1F2A4C" stroke-width="1.24008" stroke-linejoin="round"/>
<path d="M3.70081 10.0845L4.94144 11.3275" stroke="#1F2A4C" stroke-width="1.24008" stroke-linejoin="round"/>
</g>
<defs>
<clipPath id="clip0_325_34">
<rect width="23.64" height="23.64" fill="white"/>
</clipPath>
</defs>
</svg>
