<svg width="89" height="88" viewBox="0 0 89 88" fill="none" xmlns="http://www.w3.org/2000/svg">
<g clip-path="url(#clip0_572_230)">
<path d="M44.3906 87.96C68.6642 87.96 88.3418 68.2824 88.3418 44.0088C88.3418 19.7352 68.6642 0.0576172 44.3906 0.0576172C20.1171 0.0576172 0.439453 19.7352 0.439453 44.0088C0.439453 68.2824 20.1171 87.96 44.3906 87.96Z" fill="#1E2B4B"/>
<path d="M22.8333 36.9205C24.0343 25.8493 33.5246 17.4111 44.5804 17.5086C55.4925 17.6062 64.7622 25.9878 65.9478 36.9205" stroke="#CCFF66" stroke-width="2.02207" stroke-linejoin="round"/>
<path d="M23.0232 44.2959C23.2234 45.6561 23.6186 47.3344 24.3936 49.1463C26.1285 53.2011 28.8334 55.5827 29.9421 56.5989C32.6418 59.0729 36.2655 62.9275 41.3982 69.2664C42.7481 70.9345 45.2888 70.9089 46.6181 69.2305C49.7183 65.3091 52.6747 62.481 55.0358 60.4793C58.3309 57.6819 61.9546 55.2285 64.1617 50.2909C65.2087 47.9452 65.5988 45.7946 65.7579 44.301" stroke="#CCFF66" stroke-width="2.02207" stroke-linejoin="round"/>
<path d="M45.9765 53.7397C44.8114 54.72 43.0919 54.643 42.014 53.5703C41.2287 52.7901 40.3408 51.8919 39.3707 50.891C34.0635 45.4196 33.4271 44.1518 33.0575 43.1355C32.7752 42.3605 31.5023 38.5469 33.2834 34.7693C35.4647 30.155 41.1107 27.9479 45.9046 28.687C46.7207 28.8102 51.6686 29.6622 54.1169 34.0096C56.6884 38.5777 54.9997 43.8028 53.6601 45.6454C51.7456 48.2785 48.3734 51.7276 45.9765 53.7397Z" stroke="#CCFF66" stroke-width="2.02207" stroke-linejoin="round"/>
</g>
<defs>
<clipPath id="clip0_572_230">
<rect width="87.9024" height="87.9024" fill="white" transform="translate(0.439453 0.0576172)"/>
</clipPath>
</defs>
</svg>
