<svg width="23" height="26" viewBox="0 0 23 26" fill="none" xmlns="http://www.w3.org/2000/svg">
<g clip-path="url(#clip0_325_73)">
<path d="M16.5669 18.2634L13.4788 23.6507C12.634 25.1261 10.7537 25.6357 9.27828 24.791L8.85009 24.5443C8.85009 24.5443 9.70647 21.9309 7.0163 20.3881C4.32614 18.8452 2.73903 21.0397 2.73903 21.0397L2.12932 20.6906C0.653917 19.8458 0.144275 17.9655 0.989024 16.4901L4.07713 11.1028" stroke="#CCFF36" stroke-width="1.2087" stroke-linejoin="round"/>
<path d="M6.13199 7.51667L9.2201 2.12935C10.0648 0.653947 11.9452 0.144305 13.4206 0.989055L13.8488 1.23573C13.8488 1.23573 12.9924 3.8491 15.6825 5.39199C18.3727 6.93488 19.9598 4.7404 19.9598 4.7404L20.5695 5.08947C22.0449 5.93422 22.5546 7.81454 21.7098 9.28995L18.6217 14.6773" stroke="#CCFF36" stroke-width="1.2087" stroke-linejoin="round"/>
<path d="M12.6666 16.5273L15.0822 12.9598H6.132" stroke="#CCFF36" stroke-width="1.2087" stroke-linejoin="round"/>
<path d="M12.897 9.25269L15.0822 12.9598" stroke="#CCFF36" stroke-width="1.2087" stroke-linejoin="round"/>
</g>
<defs>
<clipPath id="clip0_325_73">
<rect width="22.6989" height="25.78" fill="white"/>
</clipPath>
</defs>
</svg>
