<svg width="24" height="24" viewBox="0 0 24 24" fill="none" xmlns="http://www.w3.org/2000/svg">
<g clip-path="url(#clip0_325_50)">
<path d="M15.673 18.4474L11.5078 22.6126C10.3681 23.7524 8.52001 23.7524 7.38022 22.6126L7.04954 22.2819C7.04954 22.2819 8.48248 20.1032 6.40226 18.0229C4.32203 15.9427 2.32623 17.5586 2.32623 17.5586L1.85484 17.0872C0.715054 15.9474 0.715054 14.0994 1.85484 12.9596L6.01998 8.79443" stroke="#1F2A4C" stroke-width="1.32937" stroke-linejoin="round"/>
<path d="M8.79205 6.01998L12.9549 1.85484C14.0946 0.715054 15.9427 0.715054 17.0825 1.85484L17.4131 2.18552C17.4131 2.18552 15.9802 4.36424 18.0604 6.44447C20.1407 8.5247 22.1365 6.90883 22.1365 6.90883L22.6078 7.38022C23.7476 8.52001 23.7476 10.3681 22.6078 11.5078L18.4427 15.673" stroke="#1F2A4C" stroke-width="1.32937" stroke-linejoin="round"/>
<path d="M10.9567 4.29626L20.1688 13.5107" stroke="#1F2A4C" stroke-width="1.32937" stroke-linecap="round" stroke-linejoin="round"/>
<path d="M12.8259 19.212L13.8672 20.2533" stroke="#1F2A4C" stroke-width="1.32937" stroke-linejoin="round"/>
<path d="M4.1133 10.4994L5.35393 11.7424" stroke="#1F2A4C" stroke-width="1.32937" stroke-linejoin="round"/>
<path d="M6.80588 13.0958C7.0146 13.2717 7.35701 13.7877 7.54463 14.2028C7.77915 14.7187 7.94801 15.1878 8.03947 15.5841C8.59295 14.7 9.80544 13.0395 11.9748 11.8833C13.1896 11.236 14.3224 10.9499 15.1549 10.8139" stroke="#1F2A4C" stroke-width="1.32937" stroke-linejoin="round"/>
</g>
<defs>
<clipPath id="clip0_325_50">
<rect width="23.64" height="23.64" fill="white"/>
</clipPath>
</defs>
</svg>
