<svg width="26" height="28" viewBox="0 0 26 28" fill="none" xmlns="http://www.w3.org/2000/svg">
<g clip-path="url(#clip0_325_21)">
<path d="M24.6071 14.076L25.4129 17.152C25.55 17.6736 25.3467 18.2246 24.9035 18.5332L22.381 20.2867C22.1312 20.4606 21.9524 20.7153 21.874 21.0092L21.2716 23.25C21.1197 23.8108 20.6128 24.2002 20.0324 24.2002H16.8633C16.5597 24.2002 16.2633 24.308 16.0331 24.5064L13.998 26.2354C13.5572 26.6101 12.9229 26.6419 12.4453 26.3186L9.87139 24.5651C9.62894 24.4011 9.33751 24.3227 9.04607 24.3472L6.43297 24.5553C5.83051 24.6043 5.27458 24.2247 5.1007 23.6443L4.27783 20.9088C4.19212 20.6271 4.01579 20.3847 3.77089 20.2181L1.31452 18.543C0.859004 18.232 0.653286 17.6663 0.802676 17.1373L1.64269 14.1348C1.71371 13.8801 1.70391 13.6107 1.6182 13.3633L0.619 10.5176C0.423078 9.95919 0.633694 9.33713 1.13329 9.01386L3.75129 7.31669C4.00844 7.15016 4.19702 6.89791 4.28273 6.60403L5.07131 3.94929C5.23295 3.40561 5.735 3.03091 6.30317 3.03091H9.01668C9.32771 3.03091 9.62649 2.91825 9.85915 2.71498L11.9922 0.856176C12.4355 0.46923 13.0845 0.434944 13.567 0.77046L16.2854 2.65621C16.5303 2.82764 16.8291 2.90601 17.1278 2.88152L19.4838 2.6807C20.0691 2.63172 20.6128 2.98193 20.8063 3.5354L21.825 6.45464C21.9034 6.6824 22.0455 6.88077 22.2316 7.03261L24.732 9.0457C25.1239 9.36162 25.2953 9.87592 25.1704 10.3608L24.8618 11.5755" stroke="#1F2A4C" stroke-width="1.22451" stroke-linecap="round" stroke-linejoin="round"/>
<path d="M7.11572 19.4909L18.3216 8.08771" stroke="#1F2A4C" stroke-width="1.21803" stroke-linecap="round" stroke-linejoin="round"/>
<path d="M16.0707 20.2534C17.3138 20.2534 18.3216 19.2456 18.3216 18.0024C18.3216 16.7593 17.3138 15.7515 16.0707 15.7515C14.8275 15.7515 13.8198 16.7593 13.8198 18.0024C13.8198 19.2456 14.8275 20.2534 16.0707 20.2534Z" stroke="#1F2A4C" stroke-width="1.21803" stroke-linecap="round" stroke-linejoin="round"/>
<path d="M9.51037 11.832C10.7535 11.832 11.7613 10.8242 11.7613 9.58105C11.7613 8.33791 10.7535 7.33014 9.51037 7.33014C8.26723 7.33014 7.25946 8.33791 7.25946 9.58105C7.25946 10.8242 8.26723 11.832 9.51037 11.832Z" stroke="#1F2A4C" stroke-width="1.21803" stroke-linecap="round" stroke-linejoin="round"/>
</g>
<defs>
<clipPath id="clip0_325_21">
<rect width="26" height="27.0792" fill="white"/>
</clipPath>
</defs>
</svg>
