<?xml version="1.0" encoding="UTF-8"?>
<svg id="Capa_2" data-name="Capa 2" xmlns="http://www.w3.org/2000/svg" width="40.53" height="30.47" viewBox="0 0 40.53 30.47">
  <defs>
    <style>
      .cls-1 {
        fill: #1f2c4a;
      }
    </style>
  </defs>
  <g id="Capa_1-2" data-name="Capa 1">
    <g>
      <path class="cls-1" d="M1.98,19.78H0V5.27C0,2.36,2.36,0,5.27,0H30.18V1.98H5.27c-1.81,0-3.29,1.47-3.29,3.29v14.51Z"/>
      <path class="cls-1" d="M35.26,30.47H5.27c-2.91,0-5.27-2.36-5.27-5.27v-2.51H1.98v2.51c0,1.81,1.47,3.29,3.29,3.29h29.99c1.81,0,3.29-1.47,3.29-3.29V5.27c0-1.81-1.47-3.29-3.29-3.29h-1.98V0h1.98c2.91,0,5.27,2.36,5.27,5.27V25.2c0,2.91-2.36,5.27-5.27,5.27Z"/>
      <path class="cls-1" d="M20.27,20.42c-1.84,0-3.68-.62-5.18-1.85L.36,6.44l1.26-1.53,14.73,12.13c2.27,1.87,5.56,1.87,7.83,0l14.73-12.13,1.26,1.53-14.73,12.13c-1.5,1.24-3.34,1.85-5.18,1.85Z"/>
      <rect class="cls-1" x="30.45" y="14.6" width="1.98" height="16.71" transform="translate(-6.46 31.84) rotate(-49.33)"/>
      <rect class="cls-1" x=".84" y="21.82" width="16.5" height="1.98" transform="translate(-12.68 11.45) rotate(-40.71)"/>
    </g>
  </g>
</svg>