<?xml version="1.0" encoding="UTF-8"?>
<svg id="Capa_2" data-name="Capa 2" xmlns="http://www.w3.org/2000/svg" width="54" height="54" viewBox="0 0 67.2 102.75">
  <defs>
    <style>
      .cls-1 {
        fill: #1e2b4b;
      }
    </style>
  </defs>
  <g id="Capa_1-2" data-name="Capa 1">
    <g>
      <g>
        <path class="cls-1" d="M51.13,102.75h-.07l-2.13-.02c-1.18-.01-2.19-.85-2.43-2.01-.08-.38-2.17-9.58-13.22-9.64h-.11c-10.56,0-11.89,8.34-12.01,9.29-.15,1.25-1.22,2.21-2.48,2.21h-3.03C6.99,102.53-.04,95.45,0,86.77l.13-26.68,5,.03-.13,26.68c-.02,5.92,4.76,10.75,10.67,10.78h.98c1.42-4.88,6.02-11.49,16.52-11.49h.13c10.59,.06,15.75,6.82,17.53,11.67h.26s.03,0,.05,0c2.84,0,5.52-1.1,7.55-3.1,2.03-2.01,3.16-4.7,3.17-7.57l.13-26.68,5,.02-.13,26.68c-.02,4.2-1.67,8.14-4.66,11.1-2.97,2.94-6.9,4.55-11.08,4.55Z"/>
        <path class="cls-1" d="M67.07,42.66l-5-.02,.13-26.68c.01-2.87-1.09-5.57-3.1-7.61-2.01-2.03-4.7-3.16-7.57-3.17h-.98c-1.43,4.9-6.04,11.5-16.65,11.49-10.59-.05-15.75-6.82-17.53-11.67h-.26s-.03,0-.04,0c-5.89,0-10.7,4.78-10.72,10.67l-.13,26.68-5-.03L.34,15.65C.38,7.01,7.43,0,16.08,0h.06l2.13,.02c1.18,.01,2.19,.85,2.43,2.01,.08,.38,2.17,9.58,13.22,9.64h.11c10.56,0,11.89-8.34,12.01-9.29,.15-1.25,1.22-2.21,2.48-2.21h3.03c4.2,.03,8.15,1.68,11.1,4.67,2.95,2.98,4.57,6.94,4.55,11.14l-.13,26.68Z"/>
      </g>
      <g>
        <g>
          <path class="cls-1" d="M15.21,44.88c-.59,0-1.17-.21-1.64-.61-.79-.68-1.07-1.78-.71-2.75l5.89-15.94,4.69,1.73-3.77,10.21c6.63-2.69,13.45-3.93,20.35-3.71,2.64,.09,5.31,.4,7.94,.92l-.97,4.9c-2.37-.47-4.77-.75-7.14-.82-7.98-.26-15.88,1.69-23.46,5.78-.37,.2-.78,.3-1.19,.3Z"/>
          <rect class="cls-1" x="19.8" y="38.07" width="5" height="16.98" transform="translate(-29.1 41.72) rotate(-59.02)"/>
        </g>
        <g>
          <path class="cls-1" d="M47.65,78.5l-4.6-1.96,4.27-10.02c-6.76,2.36-13.63,3.28-20.5,2.73-2.63-.21-5.28-.65-7.89-1.3l1.21-4.85c2.34,.58,4.73,.97,7.09,1.16,7.95,.64,15.92-.92,23.71-4.64,.94-.45,2.06-.27,2.81,.45,.75,.72,.98,1.83,.57,2.79l-6.66,15.64Z"/>
          <rect class="cls-1" x="42.62" y="48.88" width="5" height="16.97" transform="translate(-27.65 63) rotate(-56.25)"/>
        </g>
      </g>
    </g>
  </g>
</svg>