<?xml version="1.0" encoding="UTF-8"?>
<svg id="Capa_2" data-name="Capa 2" xmlns="http://www.w3.org/2000/svg" width="100.78" height="100.79" viewBox="0 0 100.78 100.79">
  <defs>
    <style>
      .cls-1 {
        fill: #1e2b4b;
      }
    </style>
  </defs>
  <g id="Capa_1-2" data-name="Capa 1">
    <g>
      <g>
        <path class="cls-1" d="M38.51,100.79c-3.99,0-7.74-1.55-10.57-4.38l-1.41-1.41c-.84-.84-.97-2.15-.32-3.14,.19-.3,4.83-7.75-2.44-15.02-7.2-7.2-13.77-2.03-14.04-1.81-.99,.8-2.44,.73-3.34-.18l-2.01-2.01c-5.83-5.83-5.83-15.31,0-21.13l17.76-17.76,3.54,3.54L7.91,55.24c-3.88,3.88-3.88,10.19,0,14.06l.58,.58c4.26-2.32,11.77-3.63,18.82,3.42,7.05,7.05,6.08,14.99,4.07,19.47l.1,.1c1.88,1.88,4.38,2.91,7.03,2.91s5.15-1.04,7.03-2.91l17.76-17.76,3.54,3.54-17.76,17.76c-2.82,2.82-6.58,4.38-10.57,4.38Z"/>
        <path class="cls-1" d="M78.65,66.83l-3.54-3.54,17.76-17.76c3.88-3.88,3.88-10.19,0-14.06l-.58-.58c-4.26,2.32-11.77,3.63-18.82-3.42-7.05-7.05-6.08-14.99-4.07-19.47l-.1-.1c-3.88-3.88-10.19-3.88-14.06,0l-17.76,17.76-3.54-3.54L51.71,4.37c5.83-5.83,15.31-5.83,21.13,0l1.42,1.42c.84,.84,.97,2.15,.32,3.14-.19,.3-4.83,7.75,2.44,15.02,7,6.99,13.36,2.35,14.06,1.8,1-.78,2.43-.71,3.33,.19l2.01,2.01c5.83,5.83,5.83,15.31,0,21.13l-17.76,17.76Z"/>
        <path class="cls-1" d="M84.23,58.33c-.64,0-1.28-.24-1.77-.73L43.18,18.31c-.98-.98-.98-2.56,0-3.54,.98-.98,2.56-.98,3.54,0l39.28,39.28c.98,.98,.98,2.56,0,3.54-.49,.49-1.13,.73-1.77,.73Z"/>
        <rect class="cls-1" x="52.64" y="79.22" width="5" height="6.28" transform="translate(-42.09 63.12) rotate(-45)"/>
        <rect class="cls-1" x="15.92" y="41.89" width="5" height="7.49" transform="translate(-26.88 26.39) rotate(-45)"/>
      </g>
      <path class="cls-1" d="M34.28,68.94c-.14,0-.27-.01-.41-.03-1-.17-1.8-.92-2.02-1.9-.35-1.52-1.01-3.34-1.95-5.42-.74-1.63-2-3.43-2.49-3.84l3.23-3.81c1.29,1.1,2.95,3.71,3.81,5.59,.22,.49,.43,.97,.63,1.44,3.29-4.21,8.1-8.93,14.81-12.5,4.46-2.38,9.28-4,14.33-4.82l.8,4.94c-4.51,.73-8.81,2.18-12.78,4.29-8.08,4.3-13.07,10.48-15.83,14.9-.46,.74-1.27,1.17-2.12,1.17Z"/>
    </g>
  </g>
</svg>