<?xml version="1.0" encoding="UTF-8"?>
<svg id="Capa_2" data-name="Capa 2" xmlns="http://www.w3.org/2000/svg" width="97.55" height="110.77" viewBox="0 0 97.55 110.77">
  <defs>
    <style>
      .cls-1 {
        fill: #1e2b4b;
      }
    </style>
  </defs>
  <g id="Capa_1-2" data-name="Capa 1">
    <g>
      <g>
        <path class="cls-1" d="M46.43,110.77c-2.65,0-5.33-.67-7.79-2.08l-1.85-1.06c-1.03-.59-1.5-1.82-1.13-2.94,.12-.37,2.84-9.42-6.75-14.91-3.96-2.27-7.67-2.64-11.02-1.09-2.6,1.21-4.08,3.17-4.1,3.19-.75,1.02-2.16,1.32-3.26,.69l-2.62-1.5c-3.65-2.09-6.26-5.47-7.36-9.52C-.54,77.5,0,73.26,2.09,69.61l13.27-23.15,4.34,2.49-13.27,23.15c-1.42,2.49-1.8,5.38-1.04,8.14,.75,2.76,2.53,5.07,5.02,6.49l.85,.49c3.66-3.56,10.97-7.05,20.15-1.79,9.19,5.27,10.34,13.7,9.5,18.79l.23,.13c5.13,2.94,11.69,1.15,14.63-3.98l13.27-23.15,4.34,2.49-13.27,23.15c-2.9,5.06-8.21,7.9-13.67,7.9Z"/>
        <path class="cls-1" d="M82.2,64.31l-4.34-2.49,13.27-23.15c1.42-2.49,1.79-5.38,1.04-8.14-.75-2.76-2.53-5.07-5.02-6.49l-.85-.49c-3.66,3.56-10.97,7.05-20.15,1.79-9.19-5.27-10.34-13.7-9.5-18.79l-.23-.13c-5.13-2.94-11.69-1.15-14.63,3.98l-13.27,23.15-4.34-2.49L37.46,7.9C41.77,.38,51.39-2.23,58.92,2.08l1.85,1.06c1.03,.59,1.5,1.82,1.13,2.94-.12,.37-2.84,9.42,6.75,14.91,3.97,2.27,7.67,2.64,11.02,1.09,2.6-1.21,4.08-3.17,4.1-3.19,.75-1.02,2.16-1.32,3.26-.69l2.62,1.5c3.65,2.09,6.26,5.47,7.36,9.52,1.1,4.05,.56,8.29-1.53,11.94l-13.27,23.15Z"/>
      </g>
      <g>
        <path class="cls-1" d="M56.51,72.42l-4.14-2.8,7.74-11.43H26.36v-5h38.46c.93,0,1.77,.51,2.21,1.33s.38,1.81-.14,2.57l-10.38,15.33Z"/>
        <rect class="cls-1" x="57.62" y="38.48" width="5" height="18.49" transform="translate(-15.9 37.14) rotate(-30.52)"/>
      </g>
    </g>
  </g>
</svg>