<svg width="24" height="24" viewBox="0 0 24 24" fill="none" xmlns="http://www.w3.org/2000/svg">
<g clip-path="url(#clip0_325_58)">
<path d="M15.2605 18.0326L11.0953 22.1977C9.95553 23.3375 8.10748 23.3375 6.9677 22.1977L6.63702 21.867C6.63702 21.867 8.06996 19.6883 5.98973 17.6081C3.90951 15.5279 1.91371 17.1437 1.91371 17.1437L1.44232 16.6723C0.302532 15.5326 0.302532 13.6845 1.44232 12.5447L5.60746 8.37958" stroke="#CCFF36" stroke-width="1.32937" stroke-linejoin="round"/>
<path d="M8.37953 5.60513L12.5423 1.43998C13.6821 0.300198 15.5302 0.300198 16.6699 1.43998L17.0006 1.77066C17.0006 1.77066 15.5677 3.94939 17.6479 6.02961C19.7281 8.10984 21.7239 6.49397 21.7239 6.49397L22.1953 6.96536C23.3351 8.10515 23.3351 9.9532 22.1953 11.093L18.0302 15.2581" stroke="#CCFF36" stroke-width="1.32937" stroke-linejoin="round"/>
<path d="M10.5442 3.88141L19.7563 13.0958" stroke="#CCFF36" stroke-width="1.32937" stroke-linecap="round" stroke-linejoin="round"/>
<path d="M12.4133 18.7971L13.4546 19.8384" stroke="#CCFF36" stroke-width="1.32937" stroke-linejoin="round"/>
<path d="M3.70078 10.0845L4.94141 11.3275" stroke="#CCFF36" stroke-width="1.32937" stroke-linejoin="round"/>
<path d="M6.80588 13.0958C7.0146 13.2717 7.35701 13.7877 7.54463 14.2028C7.77915 14.7187 7.94801 15.1878 8.03947 15.5841C8.59295 14.7 9.80544 13.0395 11.9748 11.8833C13.1896 11.236 14.3224 10.9499 15.1549 10.8139" stroke="#CCFF36" stroke-width="1.32937" stroke-linejoin="round"/>
</g>
<defs>
<clipPath id="clip0_325_58">
<rect width="23.64" height="23.64" fill="white"/>
</clipPath>
</defs>
</svg>
