<svg width="228" height="55" viewBox="0 0 228 55" fill="none" xmlns="http://www.w3.org/2000/svg">
<path fill-rule="evenodd" clip-rule="evenodd" d="M72.0389 15.5011C73.4237 15.4656 74.0771 15.6857 74.0629 17.3333C73.9919 28.902 74.0061 40.4708 74.0487 52.0395C74.0487 53.3178 73.7575 53.9356 72.3585 54.1558C70.9736 54.376 69.603 54.5961 68.204 54.589C64.7241 54.5606 61.9189 53.4598 60.9318 49.5823C57.523 53.2184 53.2832 54.4683 48.6103 54.518C43.5894 54.5677 40.6634 52.2525 39.4135 47.3666C39.3212 47.0044 39.4775 46.5499 38.8525 46.209C35.9479 49.4261 32.4894 51.9543 28.2638 53.332C25.4231 54.2552 22.5398 54.7666 19.5429 54.5393C13.3857 54.0777 8.84769 49.6604 8.26535 43.5174C7.74692 38.113 8.02389 32.6944 8.0381 27.2829C8.0381 25.5358 7.72562 24.8754 5.77975 24.9038C0.0983605 24.9961 0.290108 24.8896 0.0131403 19.2011C-0.121793 16.3817 0.765924 15.3235 3.44328 14.5352C9.78512 12.6746 14.1882 8.42776 16.7235 2.29896C17.4195 0.608752 21.6379 -0.662458 23.0938 0.374395C23.7542 0.843109 23.4773 1.57459 23.4844 2.19954C23.5057 5.89244 23.5625 9.58534 23.4631 13.2782C23.4204 14.8832 23.7329 15.5792 25.5723 15.565C30.9767 15.5224 30.9767 15.6076 30.9767 21.0333C30.9767 23.6468 29.6345 24.9535 26.95 24.9535C24.6443 24.9535 23.4915 26.1253 23.4915 28.4688C23.4915 31.2598 23.4489 34.0508 23.5057 36.8347C23.5625 39.9665 25.3166 41.4792 28.413 41.1809C33.6043 40.6838 39.1721 35.0948 38.5542 30.0454C38.0926 26.246 38.5542 22.34 38.4193 18.4909C38.3696 16.9711 38.959 16.1757 40.2515 15.7354C41.4872 15.3093 42.7229 14.7767 44.0013 14.6063C48.5606 14.0168 50.7976 15.8633 51.245 20.4439C51.7706 25.8483 51.3942 31.2669 51.4936 36.6713C51.522 38.2479 51.4155 39.9026 53.0773 40.7761C54.7604 41.6568 56.3299 40.8685 57.7005 39.9879C59.7316 38.674 60.8963 36.8347 60.8537 34.2497C60.7684 28.7529 60.9105 23.2491 60.7826 17.7594C60.74 15.8562 61.3508 15.3804 63.1546 15.4727C66.1089 15.6218 69.0775 15.5721 72.0318 15.4869L72.0389 15.5011ZM181.846 15.5863C183.032 15.565 183.593 15.7567 183.586 17.1558C183.529 28.8878 183.543 40.6199 183.572 52.3591C183.572 53.4314 183.295 53.9072 182.144 54.1629C180.021 54.6245 177.904 54.7524 175.774 54.5038C172.99 54.1771 171.207 52.5437 170.377 49.6959C166.719 53.4953 162.231 54.6955 157.316 54.5961C152.011 54.4825 148.106 50.7115 148.035 45.3852C147.914 36.2808 147.992 27.1692 148.006 18.0648C148.006 17.5251 147.821 16.9001 148.468 16.5237C151.173 14.9614 154.05 13.8961 157.16 14.9045C160.051 15.842 160.697 18.4554 160.782 21.0546C160.953 26.3809 160.882 31.7214 160.924 37.0477C160.953 40.9395 163.104 42.2746 166.527 40.4566C168.928 39.1783 170.327 37.3034 170.263 34.3562C170.142 28.7813 170.284 23.1994 170.192 17.6174C170.164 16.0195 170.597 15.5082 172.23 15.5721C175.433 15.6999 178.643 15.6502 181.853 15.5863H181.846ZM210.43 31.0965C216.282 34.2994 218.583 38.6314 217.688 44.5259C217.149 48.0696 215.032 50.4629 211.978 52.075C206.049 55.1998 199.891 55.1145 193.663 53.1119C186.867 50.9316 186.874 50.9103 188.472 44.05C188.543 43.7305 188.607 43.4109 188.656 43.0842C188.905 41.5147 189.359 40.8046 191.106 41.9053C193.564 43.4535 196.326 44.327 199.295 44.1566C200.097 44.114 200.907 43.8938 201.681 43.6452C202.547 43.3683 202.995 42.7007 203.002 41.7704C203.009 40.9111 202.505 40.4495 201.773 40.1086C199.323 38.9652 196.802 37.9426 194.451 36.6145C188.095 33.0282 186.306 24.8967 190.787 19.5917C193.791 16.0337 197.839 14.4642 202.512 14.5352C203.002 14.5423 203.499 14.5352 204.557 14.5352C209.159 14.4926 212.213 15.7567 216.126 17.2694C217.291 17.7168 217.447 18.3347 217.22 19.5207C216.232 24.7546 214.244 26.1466 209.251 24.8257C207.959 24.4848 206.674 24.3711 205.353 24.4493C204.309 24.5061 203.314 24.7617 203.023 25.8838C202.711 27.0556 203.577 27.709 204.472 28.1706C206.446 29.1719 208.492 30.0312 210.43 31.0965ZM103.35 13.8038C104.465 13.5197 105.012 13.6972 104.991 15.0324C104.934 19.4567 104.941 23.8882 104.991 28.3126C105.005 29.4489 104.693 29.7756 103.492 29.875C96.5044 30.4573 92.3001 35.0735 92.293 41.9976C92.293 45.442 92.2362 48.8863 92.3214 52.3236C92.3569 53.6942 91.9734 54.1842 90.5389 54.1487C87.1727 54.0564 83.7994 54.0848 80.4331 54.1416C79.2969 54.1629 78.8566 53.8646 78.8566 52.6431C78.8992 41.0815 78.8992 29.527 78.8566 17.9654C78.8566 16.8646 79.3395 16.3959 80.2201 15.9343C87.0235 12.3763 91.4621 14.869 92.3712 22.9579C93.4577 22.3472 93.6708 21.4097 94.1324 20.664C96.2913 17.1345 99.338 14.8335 103.358 13.8038H103.35ZM128.157 16.0124C133.568 14.8761 138.298 16.9498 140.649 21.9424C144.256 29.6264 144.185 37.3957 140.173 44.8951C136.253 52.217 127.93 55.7395 118.577 54.376C115.892 53.9854 113.264 53.3604 110.658 52.5934C109.096 52.1318 108.691 51.3435 108.698 49.7953C108.755 34.6047 108.755 19.4212 108.698 4.23064C108.698 2.78188 109.11 1.88706 110.445 1.39704C111.674 0.942533 112.867 0.388598 114.202 0.274971C118.463 -0.0730143 120.324 1.27631 121.02 5.50184C121.744 9.89071 121.14 14.3364 121.439 19.0662C123.754 17.6813 125.792 16.5095 128.164 16.0124H128.157ZM123.072 43.1339C127.283 42.58 130.6 38.5959 130.721 33.9017C130.799 30.9047 129.158 28.7245 126.744 28.6251C123.782 28.4973 121.346 30.855 121.346 33.8449C121.346 34.9882 121.346 36.1387 121.346 37.2821C121.346 38.7522 121.446 40.2364 121.318 41.6994C121.183 43.1978 121.914 43.2831 123.079 43.1339H123.072ZM224.513 45.8397C226.438 45.8397 228 47.4021 228 49.3195C228 51.237 226.438 52.7994 224.513 52.7994C222.588 52.7994 221.026 51.237 221.026 49.3195C221.026 47.4021 222.588 45.8397 224.513 45.8397ZM224.513 52.4514C226.239 52.4514 227.652 51.0452 227.652 49.3266C227.652 47.608 226.246 46.2019 224.513 46.2019C222.78 46.2019 221.374 47.608 221.374 49.3266C221.374 51.0452 222.78 52.4514 224.513 52.4514ZM225.031 49.5752C225.635 50.5126 225.94 50.9884 225.94 51.0168C225.94 51.0239 225.941 51.0452 225.948 51.0879C225.948 51.1802 225.884 51.2441 225.749 51.2725C225.649 51.2725 225.514 51.1021 225.337 50.7683C224.882 50.0652 224.648 49.6959 224.641 49.6604C224.492 49.6675 224.385 49.6746 224.321 49.6746H223.902V51.0097C223.902 51.1376 223.867 51.2228 223.789 51.2583C223.767 51.2725 223.739 51.2725 223.718 51.2725H223.696C223.59 51.2725 223.526 51.2015 223.512 51.0524V47.608C223.512 47.4518 223.59 47.3808 223.739 47.3808H224.385C224.968 47.3808 225.365 47.6009 225.585 48.0483C225.635 48.2046 225.664 48.3395 225.664 48.4602C225.664 48.9431 225.45 49.2982 225.024 49.5255V49.5823L225.031 49.5752ZM224.414 49.2769C224.847 49.2769 225.124 49.0781 225.252 48.6875C225.266 48.6023 225.273 48.5312 225.273 48.4744V48.4176C225.273 48.0554 225.031 47.8424 224.541 47.7642H223.902V49.2769H224.414Z" fill="white"/>
</svg>
