<svg width="18" height="26" viewBox="0 0 18 26" fill="none" xmlns="http://www.w3.org/2000/svg">
<g clip-path="url(#clip0_325_80)">
<path d="M16.3186 15.2862L16.2857 22.0373C16.2781 23.8871 14.7725 25.375 12.9228 25.3674L12.3864 25.3623C12.3864 25.3623 11.7968 22.4321 8.42374 22.4144C5.0507 22.3967 4.72681 25.3244 4.72681 25.3244H3.96262C2.11289 25.3142 0.625006 23.8086 0.632597 21.9589L0.665493 15.2078" stroke="#1F2A4C" stroke-width="1.33929" stroke-linejoin="round"/>
<path d="M0.68573 10.7138L0.718625 3.96262C0.726217 2.11289 2.23181 0.625006 4.08154 0.632597L4.61799 0.637658C4.61799 0.637658 5.20758 3.56788 8.58062 3.58559C11.9537 3.6033 12.2776 0.675614 12.2776 0.675614H13.0417C14.8915 0.685736 16.3794 2.19133 16.3718 4.04106L16.3389 10.7922" stroke="#1F2A4C" stroke-width="1.33929" stroke-linejoin="round"/>
<path d="M5.33917 6.69043L3.84875 10.7239C5.15698 10.0179 7.35591 9.09685 10.1065 9.18542C10.7998 9.20819 11.44 9.29169 12.0144 9.40556" stroke="#1F2A4C" stroke-width="1.33929" stroke-linejoin="round"/>
<path d="M7.48497 12.8874L3.80069 10.6758" stroke="#1F2A4C" stroke-width="1.33929" stroke-linejoin="round"/>
<path d="M11.4754 19.6158L13.1607 15.6583C11.8196 16.2985 9.58014 17.1133 6.83717 16.8931C6.14384 16.8374 5.51124 16.7236 4.94189 16.5819" stroke="#1F2A4C" stroke-width="1.33929" stroke-linejoin="round"/>
<path d="M9.63074 13.3227L13.2011 15.7089" stroke="#1F2A4C" stroke-width="1.33929" stroke-linejoin="round"/>
</g>
<defs>
<clipPath id="clip0_325_80">
<rect width="17.0044" height="26" fill="white"/>
</clipPath>
</defs>
</svg>
