<svg width="847" height="240" viewBox="0 0 847 240" fill="none" xmlns="http://www.w3.org/2000/svg">
<path d="M0.000427246 35.0001C0.000427246 15.6701 15.6705 6.10352e-05 35.0004 6.10352e-05H726C745.33 6.10352e-05 761 15.6701 761 35.0001V205C761 224.33 745.33 240 726 240H35.0004C15.6705 240 0.000427246 224.33 0.000427246 205V35.0001Z" fill="#FFC72C"/>
<path d="M42.75 80.5601C42.25 80.5601 41.83 80.4001 41.49 80.0801C41.17 79.7401 41.01 79.3301 41.01 78.8501C41.01 78.3701 41.17 77.9601 41.49 77.6201C41.83 77.2801 42.25 77.1101 42.75 77.1101C43.23 77.1101 43.63 77.2801 43.95 77.6201C44.29 77.9601 44.46 78.3701 44.46 78.8501C44.46 79.3301 44.29 79.7401 43.95 80.0801C43.63 80.4001 43.23 80.5601 42.75 80.5601ZM41.31 98.2901L41.61 83.1101H43.74L44.04 98.2901H41.31ZM56.2514 94.3601C54.8114 94.3601 53.5014 94.0801 52.3214 93.5201C51.1614 92.9401 50.2314 92.0501 49.5314 90.8501C48.8314 89.6501 48.4814 88.1201 48.4814 86.2601V73.0001H51.0014V86.2901C51.0014 88.3301 51.4914 89.8101 52.4714 90.7301C53.4514 91.6501 54.7314 92.1101 56.3114 92.1101C57.8914 92.1101 59.1614 91.6501 60.1214 90.7301C61.0814 89.8101 61.5614 88.3301 61.5614 86.2901V73.0001H64.0814V86.2601C64.0814 88.1201 63.7314 89.6501 63.0314 90.8501C62.3314 92.0501 61.3914 92.9401 60.2114 93.5201C59.0314 94.0801 57.7114 94.3601 56.2514 94.3601ZM54.9014 71.7701V69.8801L61.2014 66.0701V68.2601L54.9014 71.7701ZM68.1989 94.0001V79.1201H70.4789L70.6289 81.7901C71.1089 80.8501 71.7989 80.1101 72.6989 79.5701C73.5989 79.0301 74.6189 78.7601 75.7589 78.7601C77.5189 78.7601 78.9189 79.3001 79.9589 80.3801C81.0189 81.4401 81.5489 83.0801 81.5489 85.3001V94.0001H79.0289V85.5701C79.0289 82.4701 77.7489 80.9201 75.1889 80.9201C73.9089 80.9201 72.8389 81.3901 71.9789 82.3301C71.1389 83.2501 70.7189 84.5701 70.7189 86.2901V94.0001H68.1989ZM92.0569 94.3601C90.6369 94.3601 89.3769 94.0401 88.2769 93.4001C87.1769 92.7401 86.3069 91.8301 85.6669 90.6701C85.0469 89.5101 84.7369 88.1401 84.7369 86.5601C84.7369 85.0001 85.0469 83.6401 85.6669 82.4801C86.2869 81.3001 87.1469 80.3901 88.2469 79.7501C89.3669 79.0901 90.6569 78.7601 92.1169 78.7601C93.5569 78.7601 94.7969 79.0901 95.8369 79.7501C96.8969 80.3901 97.7069 81.2401 98.2669 82.3001C98.8269 83.3601 99.1069 84.5001 99.1069 85.7201C99.1069 85.9401 99.0969 86.1601 99.0769 86.3801C99.0769 86.6001 99.0769 86.8501 99.0769 87.1301H87.2269C87.2869 88.2701 87.5469 89.2201 88.0069 89.9801C88.4869 90.7201 89.0769 91.2801 89.7769 91.6601C90.4969 92.0401 91.2569 92.2301 92.0569 92.2301C93.0969 92.2301 93.9669 91.9901 94.6669 91.5101C95.3669 91.0301 95.8769 90.3801 96.1969 89.5601H98.6869C98.2869 90.9401 97.5169 92.0901 96.3769 93.0101C95.2569 93.9101 93.8169 94.3601 92.0569 94.3601ZM92.0569 80.8901C90.8569 80.8901 89.7869 81.2601 88.8469 82.0001C87.9269 82.7201 87.3969 83.7801 87.2569 85.1801H96.6169C96.5569 83.8401 96.0969 82.7901 95.2369 82.0301C94.3769 81.2701 93.3169 80.8901 92.0569 80.8901ZM107.829 94.0001C106.469 94.0001 105.399 93.6701 104.619 93.0101C103.839 92.3501 103.449 91.1601 103.449 89.4401V81.2501H100.869V79.1201H103.449L103.779 75.5501H105.969V79.1201H110.349V81.2501H105.969V89.4401C105.969 90.3801 106.159 91.0201 106.539 91.3601C106.919 91.6801 107.589 91.8401 108.549 91.8401H110.109V94.0001H107.829ZM119.83 94.3601C118.41 94.3601 117.15 94.0401 116.05 93.4001C114.95 92.7401 114.08 91.8301 113.44 90.6701C112.82 89.5101 112.51 88.1401 112.51 86.5601C112.51 85.0001 112.82 83.6401 113.44 82.4801C114.06 81.3001 114.92 80.3901 116.02 79.7501C117.14 79.0901 118.43 78.7601 119.89 78.7601C121.33 78.7601 122.57 79.0901 123.61 79.7501C124.67 80.3901 125.48 81.2401 126.04 82.3001C126.6 83.3601 126.88 84.5001 126.88 85.7201C126.88 85.9401 126.87 86.1601 126.85 86.3801C126.85 86.6001 126.85 86.8501 126.85 87.1301H115C115.06 88.2701 115.32 89.2201 115.78 89.9801C116.26 90.7201 116.85 91.2801 117.55 91.6601C118.27 92.0401 119.03 92.2301 119.83 92.2301C120.87 92.2301 121.74 91.9901 122.44 91.5101C123.14 91.0301 123.65 90.3801 123.97 89.5601H126.46C126.06 90.9401 125.29 92.0901 124.15 93.0101C123.03 93.9101 121.59 94.3601 119.83 94.3601ZM119.83 80.8901C118.63 80.8901 117.56 81.2601 116.62 82.0001C115.7 82.7201 115.17 83.7801 115.03 85.1801H124.39C124.33 83.8401 123.87 82.7901 123.01 82.0301C122.15 81.2701 121.09 80.8901 119.83 80.8901ZM143.11 94.3601C141.87 94.3601 140.84 94.1501 140.02 93.7301C139.2 93.3101 138.59 92.7501 138.19 92.0501C137.79 91.3501 137.59 90.5901 137.59 89.7701C137.59 88.2501 138.17 87.0801 139.33 86.2601C140.49 85.4401 142.07 85.0301 144.07 85.0301H148.09V84.8501C148.09 83.5501 147.75 82.5701 147.07 81.9101C146.39 81.2301 145.48 80.8901 144.34 80.8901C143.36 80.8901 142.51 81.1401 141.79 81.6401C141.09 82.1201 140.65 82.8301 140.47 83.7701H137.89C137.99 82.6901 138.35 81.7801 138.97 81.0401C139.61 80.3001 140.4 79.7401 141.34 79.3601C142.28 78.9601 143.28 78.7601 144.34 78.7601C146.42 78.7601 147.98 79.3201 149.02 80.4401C150.08 81.5401 150.61 83.0101 150.61 84.8501V94.0001H148.36L148.21 91.3301C147.79 92.1701 147.17 92.8901 146.35 93.4901C145.55 94.0701 144.47 94.3601 143.11 94.3601ZM143.5 92.2301C144.46 92.2301 145.28 91.9801 145.96 91.4801C146.66 90.9801 147.19 90.3301 147.55 89.5301C147.91 88.7301 148.09 87.8901 148.09 87.0101V86.9801H144.28C142.8 86.9801 141.75 87.2401 141.13 87.7601C140.53 88.2601 140.23 88.8901 140.23 89.6501C140.23 90.4301 140.51 91.0601 141.07 91.5401C141.65 92.0001 142.46 92.2301 143.5 92.2301ZM162.3 94.0001V73.0001H166.86L173.55 86.3201L180.15 73.0001H184.71V94.0001H180.87V79.5101L175.02 91.0001H171.99L166.14 79.5101V94.0001H162.3ZM194.274 94.3601C192.414 94.3601 190.974 93.7801 189.954 92.6201C188.954 91.4601 188.454 89.7601 188.454 87.5201V79.1201H192.264V87.1601C192.264 88.4401 192.524 89.4201 193.044 90.1001C193.564 90.7801 194.384 91.1201 195.504 91.1201C196.564 91.1201 197.434 90.7401 198.114 89.9801C198.814 89.2201 199.164 88.1601 199.164 86.8001V79.1201H203.004V94.0001H199.614L199.314 91.4801C198.854 92.3601 198.184 93.0601 197.304 93.5801C196.444 94.1001 195.434 94.3601 194.274 94.3601ZM210.966 94.0001L205.506 79.1201H209.526L213.306 90.3701L217.086 79.1201H221.106L215.616 94.0001H210.966ZM225.598 76.8101C224.898 76.8101 224.318 76.6001 223.858 76.1801C223.418 75.7601 223.198 75.2301 223.198 74.5901C223.198 73.9501 223.418 73.4301 223.858 73.0301C224.318 72.6101 224.898 72.4001 225.598 72.4001C226.298 72.4001 226.868 72.6101 227.308 73.0301C227.768 73.4301 227.998 73.9501 227.998 74.5901C227.998 75.2301 227.768 75.7601 227.308 76.1801C226.868 76.6001 226.298 76.8101 225.598 76.8101ZM223.678 94.0001V79.1201H227.518V94.0001H223.678ZM232.216 94.0001V82.3301H230.176V79.1201H232.216V77.3801C232.216 75.5801 232.666 74.3001 233.566 73.5401C234.486 72.7801 235.726 72.4001 237.286 72.4001H238.936V75.6701H237.886C237.226 75.6701 236.756 75.8001 236.476 76.0601C236.196 76.3201 236.056 76.7601 236.056 77.3801V79.1201H239.266V82.3301H236.056V94.0001H232.216ZM244.167 100.6L247.617 93.0101H246.717L240.927 79.1201H245.097L249.267 89.5901L253.617 79.1201H257.697L248.247 100.6H244.167ZM269.096 100.6L272.786 92.5601H271.916L266.006 79.1201H268.736L273.656 90.7001L278.876 79.1201H281.486L271.736 100.6H269.096ZM47.82 129.36C46.34 129.36 45.04 129.02 43.92 128.34C42.82 127.66 41.96 126.73 41.34 125.55C40.74 124.37 40.44 123.03 40.44 121.53C40.44 120.03 40.75 118.7 41.37 117.54C41.99 116.36 42.85 115.44 43.95 114.78C45.05 114.1 46.35 113.76 47.85 113.76C49.07 113.76 50.15 114.01 51.09 114.51C52.03 115.01 52.76 115.71 53.28 116.61V107.4H55.8V129H53.52L53.28 126.54C52.8 127.26 52.11 127.91 51.21 128.49C50.31 129.07 49.18 129.36 47.82 129.36ZM48.09 127.17C49.09 127.17 49.97 126.94 50.73 126.48C51.51 126 52.11 125.34 52.53 124.5C52.97 123.66 53.19 122.68 53.19 121.56C53.19 120.44 52.97 119.46 52.53 118.62C52.11 117.78 51.51 117.13 50.73 116.67C49.97 116.19 49.09 115.95 48.09 115.95C47.11 115.95 46.23 116.19 45.45 116.67C44.69 117.13 44.09 117.78 43.65 118.62C43.23 119.46 43.02 120.44 43.02 121.56C43.02 122.68 43.23 123.66 43.65 124.5C44.09 125.34 44.69 126 45.45 126.48C46.23 126.94 47.11 127.17 48.09 127.17ZM61.4379 110.82C60.9379 110.82 60.5179 110.66 60.1779 110.34C59.8579 110 59.6979 109.58 59.6979 109.08C59.6979 108.6 59.8579 108.2 60.1779 107.88C60.5179 107.56 60.9379 107.4 61.4379 107.4C61.9179 107.4 62.3279 107.56 62.6679 107.88C63.0079 108.2 63.1779 108.6 63.1779 109.08C63.1779 109.58 63.0079 110 62.6679 110.34C62.3279 110.66 61.9179 110.82 61.4379 110.82ZM60.1779 129V114.12H62.6979V129H60.1779ZM72.7856 129.36C71.0056 129.36 69.5256 128.91 68.3456 128.01C67.1656 127.11 66.4756 125.89 66.2756 124.35H68.8556C69.0156 125.13 69.4256 125.81 70.0856 126.39C70.7656 126.95 71.6756 127.23 72.8156 127.23C73.8756 127.23 74.6556 127.01 75.1556 126.57C75.6556 126.11 75.9056 125.57 75.9056 124.95C75.9056 124.05 75.5756 123.45 74.9156 123.15C74.2756 122.85 73.3656 122.58 72.1856 122.34C71.3856 122.18 70.5856 121.95 69.7856 121.65C68.9856 121.35 68.3156 120.93 67.7756 120.39C67.2356 119.83 66.9656 119.1 66.9656 118.2C66.9656 116.9 67.4456 115.84 68.4056 115.02C69.3856 114.18 70.7056 113.76 72.3656 113.76C73.9456 113.76 75.2356 114.16 76.2356 114.96C77.2556 115.74 77.8456 116.86 78.0056 118.32H75.5156C75.4156 117.56 75.0856 116.97 74.5256 116.55C73.9856 116.11 73.2556 115.89 72.3356 115.89C71.4356 115.89 70.7356 116.08 70.2356 116.46C69.7556 116.84 69.5156 117.34 69.5156 117.96C69.5156 118.56 69.8256 119.03 70.4456 119.37C71.0856 119.71 71.9456 120 73.0256 120.24C73.9456 120.44 74.8156 120.69 75.6356 120.99C76.4756 121.27 77.1556 121.7 77.6756 122.28C78.2156 122.84 78.4856 123.66 78.4856 124.74C78.5056 126.08 77.9956 127.19 76.9556 128.07C75.9356 128.93 74.5456 129.36 72.7856 129.36ZM82.8956 129V116.25H80.6456V114.12H82.8956V111.54C82.8956 110.1 83.2556 109.05 83.9756 108.39C84.6956 107.73 85.7456 107.4 87.1256 107.4H88.6256V109.56H87.5156C86.7556 109.56 86.2156 109.72 85.8956 110.04C85.5756 110.34 85.4156 110.86 85.4156 111.6V114.12H89.0756V116.25H85.4156V129H82.8956ZM92.0759 129V114.12H94.3559L94.5659 116.97C95.0259 115.99 95.7259 115.21 96.6659 114.63C97.6059 114.05 98.7659 113.76 100.146 113.76V116.4H99.4559C98.5759 116.4 97.7659 116.56 97.0259 116.88C96.2859 117.18 95.6959 117.7 95.2559 118.44C94.8159 119.18 94.5959 120.2 94.5959 121.5V129H92.0759ZM108.404 129.36C106.644 129.36 105.244 128.83 104.204 127.77C103.164 126.69 102.644 125.04 102.644 122.82V114.12H105.164V122.55C105.164 125.65 106.434 127.2 108.974 127.2C110.274 127.2 111.344 126.74 112.184 125.82C113.044 124.88 113.474 123.55 113.474 121.83V114.12H115.994V129H113.714L113.534 126.33C113.074 127.27 112.384 128.01 111.464 128.55C110.564 129.09 109.544 129.36 108.404 129.36ZM126.022 129C124.662 129 123.592 128.67 122.812 128.01C122.032 127.35 121.642 126.16 121.642 124.44V116.25H119.062V114.12H121.642L121.972 110.55H124.162V114.12H128.542V116.25H124.162V124.44C124.162 125.38 124.352 126.02 124.732 126.36C125.112 126.68 125.782 126.84 126.742 126.84H128.302V129H126.022ZM136.694 129.36C135.454 129.36 134.424 129.15 133.604 128.73C132.784 128.31 132.174 127.75 131.774 127.05C131.374 126.35 131.174 125.59 131.174 124.77C131.174 123.25 131.754 122.08 132.914 121.26C134.074 120.44 135.654 120.03 137.654 120.03H141.674V119.85C141.674 118.55 141.334 117.57 140.654 116.91C139.974 116.23 139.064 115.89 137.924 115.89C136.944 115.89 136.094 116.14 135.374 116.64C134.674 117.12 134.234 117.83 134.054 118.77H131.474C131.574 117.69 131.934 116.78 132.554 116.04C133.194 115.3 133.984 114.74 134.924 114.36C135.864 113.96 136.864 113.76 137.924 113.76C140.004 113.76 141.564 114.32 142.604 115.44C143.664 116.54 144.194 118.01 144.194 119.85V129H141.944L141.794 126.33C141.374 127.17 140.754 127.89 139.934 128.49C139.134 129.07 138.054 129.36 136.694 129.36ZM137.084 127.23C138.044 127.23 138.864 126.98 139.544 126.48C140.244 125.98 140.774 125.33 141.134 124.53C141.494 123.73 141.674 122.89 141.674 122.01V121.98H137.864C136.384 121.98 135.334 122.24 134.714 122.76C134.114 123.26 133.814 123.89 133.814 124.65C133.814 125.43 134.094 126.06 134.654 126.54C135.234 127 136.044 127.23 137.084 127.23ZM162.664 129.36C161.184 129.36 159.884 129.02 158.764 128.34C157.664 127.66 156.804 126.73 156.184 125.55C155.584 124.37 155.284 123.03 155.284 121.53C155.284 120.03 155.594 118.7 156.214 117.54C156.834 116.36 157.694 115.44 158.794 114.78C159.894 114.1 161.194 113.76 162.694 113.76C163.914 113.76 164.994 114.01 165.934 114.51C166.874 115.01 167.604 115.71 168.124 116.61V107.4H170.644V129H168.364L168.124 126.54C167.644 127.26 166.954 127.91 166.054 128.49C165.154 129.07 164.024 129.36 162.664 129.36ZM162.934 127.17C163.934 127.17 164.814 126.94 165.574 126.48C166.354 126 166.954 125.34 167.374 124.5C167.814 123.66 168.034 122.68 168.034 121.56C168.034 120.44 167.814 119.46 167.374 118.62C166.954 117.78 166.354 117.13 165.574 116.67C164.814 116.19 163.934 115.95 162.934 115.95C161.954 115.95 161.074 116.19 160.294 116.67C159.534 117.13 158.934 117.78 158.494 118.62C158.074 119.46 157.864 120.44 157.864 121.56C157.864 122.68 158.074 123.66 158.494 124.5C158.934 125.34 159.534 126 160.294 126.48C161.074 126.94 161.954 127.17 162.934 127.17ZM181.442 129.36C180.022 129.36 178.762 129.04 177.662 128.4C176.562 127.74 175.692 126.83 175.052 125.67C174.432 124.51 174.122 123.14 174.122 121.56C174.122 120 174.432 118.64 175.052 117.48C175.672 116.3 176.532 115.39 177.632 114.75C178.752 114.09 180.042 113.76 181.502 113.76C182.942 113.76 184.182 114.09 185.222 114.75C186.282 115.39 187.092 116.24 187.652 117.3C188.212 118.36 188.492 119.5 188.492 120.72C188.492 120.94 188.482 121.16 188.462 121.38C188.462 121.6 188.462 121.85 188.462 122.13H176.612C176.672 123.27 176.932 124.22 177.392 124.98C177.872 125.72 178.462 126.28 179.162 126.66C179.882 127.04 180.642 127.23 181.442 127.23C182.482 127.23 183.352 126.99 184.052 126.51C184.752 126.03 185.262 125.38 185.582 124.56H188.072C187.672 125.94 186.902 127.09 185.762 128.01C184.642 128.91 183.202 129.36 181.442 129.36ZM181.442 115.89C180.242 115.89 179.172 116.26 178.232 117C177.312 117.72 176.782 118.78 176.642 120.18H186.002C185.942 118.84 185.482 117.79 184.622 117.03C183.762 116.27 182.702 115.89 181.442 115.89ZM199.771 129V107.4H202.291V129H199.771ZM211.372 129.36C210.132 129.36 209.102 129.15 208.282 128.73C207.462 128.31 206.852 127.75 206.452 127.05C206.052 126.35 205.852 125.59 205.852 124.77C205.852 123.25 206.432 122.08 207.592 121.26C208.752 120.44 210.332 120.03 212.332 120.03H216.352V119.85C216.352 118.55 216.012 117.57 215.332 116.91C214.652 116.23 213.742 115.89 212.602 115.89C211.622 115.89 210.772 116.14 210.052 116.64C209.352 117.12 208.912 117.83 208.732 118.77H206.152C206.252 117.69 206.612 116.78 207.232 116.04C207.872 115.3 208.662 114.74 209.602 114.36C210.542 113.96 211.542 113.76 212.602 113.76C214.682 113.76 216.242 114.32 217.282 115.44C218.342 116.54 218.872 118.01 218.872 119.85V129H216.622L216.472 126.33C216.052 127.17 215.432 127.89 214.612 128.49C213.812 129.07 212.732 129.36 211.372 129.36ZM211.762 127.23C212.722 127.23 213.542 126.98 214.222 126.48C214.922 125.98 215.452 125.33 215.812 124.53C216.172 123.73 216.352 122.89 216.352 122.01V121.98H212.542C211.062 121.98 210.012 122.24 209.392 122.76C208.792 123.26 208.492 123.89 208.492 124.65C208.492 125.43 208.772 126.06 209.332 126.54C209.912 127 210.722 127.23 211.762 127.23ZM228.352 129.36C226.572 129.36 225.092 128.91 223.912 128.01C222.732 127.11 222.042 125.89 221.842 124.35H224.422C224.582 125.13 224.992 125.81 225.652 126.39C226.332 126.95 227.242 127.23 228.382 127.23C229.442 127.23 230.222 127.01 230.722 126.57C231.222 126.11 231.472 125.57 231.472 124.95C231.472 124.05 231.142 123.45 230.482 123.15C229.842 122.85 228.932 122.58 227.752 122.34C226.952 122.18 226.152 121.95 225.352 121.65C224.552 121.35 223.882 120.93 223.342 120.39C222.802 119.83 222.532 119.1 222.532 118.2C222.532 116.9 223.012 115.84 223.972 115.02C224.952 114.18 226.272 113.76 227.932 113.76C229.512 113.76 230.802 114.16 231.802 114.96C232.822 115.74 233.412 116.86 233.572 118.32H231.082C230.982 117.56 230.652 116.97 230.092 116.55C229.552 116.11 228.822 115.89 227.902 115.89C227.002 115.89 226.302 116.08 225.802 116.46C225.322 116.84 225.082 117.34 225.082 117.96C225.082 118.56 225.392 119.03 226.012 119.37C226.652 119.71 227.512 120 228.592 120.24C229.512 120.44 230.382 120.69 231.202 120.99C232.042 121.27 232.722 121.7 233.242 122.28C233.782 122.84 234.052 123.66 234.052 124.74C234.072 126.08 233.562 127.19 232.522 128.07C231.502 128.93 230.112 129.36 228.352 129.36ZM245.471 129V114.12H248.861L249.191 116.13C249.671 115.41 250.301 114.84 251.081 114.42C251.881 113.98 252.801 113.76 253.841 113.76C256.141 113.76 257.771 114.65 258.731 116.43C259.271 115.61 259.991 114.96 260.891 114.48C261.811 114 262.811 113.76 263.891 113.76C265.831 113.76 267.321 114.34 268.361 115.5C269.401 116.66 269.921 118.36 269.921 120.6V129H266.081V120.96C266.081 119.68 265.831 118.7 265.331 118.02C264.851 117.34 264.101 117 263.081 117C262.041 117 261.201 117.38 260.561 118.14C259.941 118.9 259.631 119.96 259.631 121.32V129H255.791V120.96C255.791 119.68 255.541 118.7 255.041 118.02C254.541 117.34 253.771 117 252.731 117C251.711 117 250.881 117.38 250.241 118.14C249.621 118.9 249.311 119.96 249.311 121.32V129H245.471ZM280.797 129.36C279.297 129.36 277.967 129.04 276.807 128.4C275.647 127.76 274.737 126.86 274.077 125.7C273.417 124.54 273.087 123.2 273.087 121.68C273.087 120.14 273.407 118.77 274.047 117.57C274.707 116.37 275.607 115.44 276.747 114.78C277.907 114.1 279.267 113.76 280.827 113.76C282.287 113.76 283.577 114.08 284.697 114.72C285.817 115.36 286.687 116.24 287.307 117.36C287.947 118.46 288.267 119.69 288.267 121.05C288.267 121.27 288.257 121.5 288.237 121.74C288.237 121.98 288.227 122.23 288.207 122.49H276.897C276.977 123.65 277.377 124.56 278.097 125.22C278.837 125.88 279.727 126.21 280.767 126.21C281.547 126.21 282.197 126.04 282.717 125.7C283.257 125.34 283.657 124.88 283.917 124.32H287.817C287.537 125.26 287.067 126.12 286.407 126.9C285.767 127.66 284.967 128.26 284.007 128.7C283.067 129.14 281.997 129.36 280.797 129.36ZM280.827 116.88C279.887 116.88 279.057 117.15 278.337 117.69C277.617 118.21 277.157 119.01 276.957 120.09H284.367C284.307 119.11 283.947 118.33 283.287 117.75C282.627 117.17 281.807 116.88 280.827 116.88ZM293.627 111.81C292.927 111.81 292.347 111.6 291.887 111.18C291.447 110.76 291.227 110.23 291.227 109.59C291.227 108.95 291.447 108.43 291.887 108.03C292.347 107.61 292.927 107.4 293.627 107.4C294.327 107.4 294.897 107.61 295.337 108.03C295.797 108.43 296.027 108.95 296.027 109.59C296.027 110.23 295.797 110.76 295.337 111.18C294.897 111.6 294.327 111.81 293.627 111.81ZM288.677 135.6V132.33H289.847C290.507 132.33 290.977 132.2 291.257 131.94C291.537 131.68 291.677 131.24 291.677 130.62V114.12H295.517V130.62C295.517 132.42 295.057 133.7 294.137 134.46C293.237 135.22 292.007 135.6 290.447 135.6H288.677ZM306.664 129.36C305.224 129.36 303.924 129.03 302.764 128.37C301.624 127.71 300.714 126.8 300.034 125.64C299.374 124.46 299.044 123.1 299.044 121.56C299.044 120.02 299.384 118.67 300.064 117.51C300.744 116.33 301.654 115.41 302.794 114.75C303.954 114.09 305.254 113.76 306.694 113.76C308.114 113.76 309.394 114.09 310.534 114.75C311.694 115.41 312.604 116.33 313.264 117.51C313.944 118.67 314.284 120.02 314.284 121.56C314.284 123.1 313.944 124.46 313.264 125.64C312.604 126.8 311.694 127.71 310.534 128.37C309.374 129.03 308.084 129.36 306.664 129.36ZM306.664 126.03C307.664 126.03 308.534 125.66 309.274 124.92C310.014 124.16 310.384 123.04 310.384 121.56C310.384 120.08 310.014 118.97 309.274 118.23C308.534 117.47 307.674 117.09 306.694 117.09C305.674 117.09 304.794 117.47 304.054 118.23C303.334 118.97 302.974 120.08 302.974 121.56C302.974 123.04 303.334 124.16 304.054 124.92C304.794 125.66 305.664 126.03 306.664 126.03ZM317.718 129V114.12H321.138L321.498 116.91C322.038 115.95 322.768 115.19 323.688 114.63C324.628 114.05 325.728 113.76 326.988 113.76V117.81H325.908C325.068 117.81 324.318 117.94 323.658 118.2C322.998 118.46 322.478 118.91 322.098 119.55C321.738 120.19 321.558 121.08 321.558 122.22V129H317.718ZM336.578 129.36C335.078 129.36 333.748 129.04 332.588 128.4C331.428 127.76 330.518 126.86 329.858 125.7C329.198 124.54 328.868 123.2 328.868 121.68C328.868 120.14 329.188 118.77 329.828 117.57C330.488 116.37 331.388 115.44 332.528 114.78C333.688 114.1 335.048 113.76 336.608 113.76C338.068 113.76 339.358 114.08 340.478 114.72C341.598 115.36 342.468 116.24 343.088 117.36C343.728 118.46 344.048 119.69 344.048 121.05C344.048 121.27 344.038 121.5 344.018 121.74C344.018 121.98 344.008 122.23 343.988 122.49H332.678C332.758 123.65 333.158 124.56 333.878 125.22C334.618 125.88 335.508 126.21 336.548 126.21C337.328 126.21 337.978 126.04 338.498 125.7C339.038 125.34 339.438 124.88 339.698 124.32H343.598C343.318 125.26 342.848 126.12 342.188 126.9C341.548 127.66 340.748 128.26 339.788 128.7C338.848 129.14 337.778 129.36 336.578 129.36ZM336.608 116.88C335.668 116.88 334.838 117.15 334.118 117.69C333.398 118.21 332.938 119.01 332.738 120.09H340.148C340.088 119.11 339.728 118.33 339.068 117.75C338.408 117.17 337.588 116.88 336.608 116.88ZM353.428 129.36C352.108 129.36 350.948 129.15 349.948 128.73C348.948 128.29 348.148 127.69 347.548 126.93C346.948 126.17 346.588 125.29 346.468 124.29H350.338C350.458 124.87 350.778 125.37 351.298 125.79C351.838 126.19 352.528 126.39 353.368 126.39C354.208 126.39 354.818 126.22 355.198 125.88C355.598 125.54 355.798 125.15 355.798 124.71C355.798 124.07 355.518 123.64 354.958 123.42C354.398 123.18 353.618 122.95 352.618 122.73C351.978 122.59 351.328 122.42 350.668 122.22C350.008 122.02 349.398 121.77 348.838 121.47C348.298 121.15 347.858 120.75 347.518 120.27C347.178 119.77 347.008 119.16 347.008 118.44C347.008 117.12 347.528 116.01 348.568 115.11C349.628 114.21 351.108 113.76 353.008 113.76C354.768 113.76 356.168 114.17 357.208 114.99C358.268 115.81 358.898 116.94 359.098 118.38H355.468C355.248 117.28 354.418 116.73 352.978 116.73C352.258 116.73 351.698 116.87 351.298 117.15C350.918 117.43 350.728 117.78 350.728 118.2C350.728 118.64 351.018 118.99 351.598 119.25C352.178 119.51 352.948 119.75 353.908 119.97C354.948 120.21 355.898 120.48 356.758 120.78C357.638 121.06 358.338 121.49 358.858 122.07C359.378 122.63 359.638 123.44 359.638 124.5C359.658 125.42 359.418 126.25 358.918 126.99C358.418 127.73 357.698 128.31 356.758 128.73C355.818 129.15 354.708 129.36 353.428 129.36ZM371.928 135.6L375.618 127.56H374.748L368.838 114.12H371.568L376.488 125.7L381.708 114.12H384.318L374.568 135.6H371.928ZM40.95 164V149.12H44.34L44.67 151.13C45.15 150.41 45.78 149.84 46.56 149.42C47.36 148.98 48.28 148.76 49.32 148.76C51.62 148.76 53.25 149.65 54.21 151.43C54.75 150.61 55.47 149.96 56.37 149.48C57.29 149 58.29 148.76 59.37 148.76C61.31 148.76 62.8 149.34 63.84 150.5C64.88 151.66 65.4 153.36 65.4 155.6V164H61.56V155.96C61.56 154.68 61.31 153.7 60.81 153.02C60.33 152.34 59.58 152 58.56 152C57.52 152 56.68 152.38 56.04 153.14C55.42 153.9 55.11 154.96 55.11 156.32V164H51.27V155.96C51.27 154.68 51.02 153.7 50.52 153.02C50.02 152.34 49.25 152 48.21 152C47.19 152 46.36 152.38 45.72 153.14C45.1 153.9 44.79 154.96 44.79 156.32V164H40.95ZM74.1757 164.36C72.8957 164.36 71.8457 164.16 71.0257 163.76C70.2057 163.34 69.5957 162.79 69.1957 162.11C68.7957 161.43 68.5957 160.68 68.5957 159.86C68.5957 158.48 69.1357 157.36 70.2157 156.5C71.2957 155.64 72.9157 155.21 75.0757 155.21H78.8557V154.85C78.8557 153.83 78.5657 153.08 77.9857 152.6C77.4057 152.12 76.6857 151.88 75.8257 151.88C75.0457 151.88 74.3657 152.07 73.7857 152.45C73.2057 152.81 72.8457 153.35 72.7057 154.07H68.9557C69.0557 152.99 69.4157 152.05 70.0357 151.25C70.6757 150.45 71.4957 149.84 72.4957 149.42C73.4957 148.98 74.6157 148.76 75.8557 148.76C77.9757 148.76 79.6457 149.29 80.8657 150.35C82.0857 151.41 82.6957 152.91 82.6957 154.85V164H79.4257L79.0657 161.6C78.6257 162.4 78.0057 163.06 77.2057 163.58C76.4257 164.1 75.4157 164.36 74.1757 164.36ZM75.0457 161.36C76.1457 161.36 76.9957 161 77.5957 160.28C78.2157 159.56 78.6057 158.67 78.7657 157.61H75.4957C74.4757 157.61 73.7457 157.8 73.3057 158.18C72.8657 158.54 72.6457 158.99 72.6457 159.53C72.6457 160.11 72.8657 160.56 73.3057 160.88C73.7457 161.2 74.3257 161.36 75.0457 161.36ZM74.7757 147.92V145.22L81.5557 141.56V144.68L74.7757 147.92ZM92.5102 164.36C91.1902 164.36 90.0302 164.15 89.0302 163.73C88.0302 163.29 87.2302 162.69 86.6302 161.93C86.0302 161.17 85.6702 160.29 85.5502 159.29H89.4202C89.5402 159.87 89.8602 160.37 90.3802 160.79C90.9202 161.19 91.6102 161.39 92.4502 161.39C93.2902 161.39 93.9002 161.22 94.2802 160.88C94.6802 160.54 94.8802 160.15 94.8802 159.71C94.8802 159.07 94.6002 158.64 94.0402 158.42C93.4802 158.18 92.7002 157.95 91.7002 157.73C91.0602 157.59 90.4102 157.42 89.7502 157.22C89.0902 157.02 88.4802 156.77 87.9202 156.47C87.3802 156.15 86.9402 155.75 86.6002 155.27C86.2602 154.77 86.0902 154.16 86.0902 153.44C86.0902 152.12 86.6102 151.01 87.6502 150.11C88.7102 149.21 90.1902 148.76 92.0902 148.76C93.8502 148.76 95.2502 149.17 96.2902 149.99C97.3502 150.81 97.9802 151.94 98.1802 153.38H94.5502C94.3302 152.28 93.5002 151.73 92.0602 151.73C91.3402 151.73 90.7802 151.87 90.3802 152.15C90.0002 152.43 89.8102 152.78 89.8102 153.2C89.8102 153.64 90.1002 153.99 90.6802 154.25C91.2602 154.51 92.0302 154.75 92.9902 154.97C94.0302 155.21 94.9802 155.48 95.8402 155.78C96.7202 156.06 97.4202 156.49 97.9402 157.07C98.4602 157.63 98.7202 158.44 98.7202 159.5C98.7402 160.42 98.5002 161.25 98.0002 161.99C97.5002 162.73 96.7802 163.31 95.8402 163.73C94.9002 164.15 93.7902 164.36 92.5102 164.36ZM116.5 164.36C115 164.36 113.67 164.04 112.51 163.4C111.35 162.76 110.44 161.86 109.78 160.7C109.12 159.54 108.79 158.2 108.79 156.68C108.79 155.14 109.11 153.77 109.75 152.57C110.41 151.37 111.31 150.44 112.45 149.78C113.61 149.1 114.97 148.76 116.53 148.76C117.99 148.76 119.28 149.08 120.4 149.72C121.52 150.36 122.39 151.24 123.01 152.36C123.65 153.46 123.97 154.69 123.97 156.05C123.97 156.27 123.96 156.5 123.94 156.74C123.94 156.98 123.93 157.23 123.91 157.49H112.6C112.68 158.65 113.08 159.56 113.8 160.22C114.54 160.88 115.43 161.21 116.47 161.21C117.25 161.21 117.9 161.04 118.42 160.7C118.96 160.34 119.36 159.88 119.62 159.32H123.52C123.24 160.26 122.77 161.12 122.11 161.9C121.47 162.66 120.67 163.26 119.71 163.7C118.77 164.14 117.7 164.36 116.5 164.36ZM116.53 151.88C115.59 151.88 114.76 152.15 114.04 152.69C113.32 153.21 112.86 154.01 112.66 155.09H120.07C120.01 154.11 119.65 153.33 118.99 152.75C118.33 152.17 117.51 151.88 116.53 151.88ZM124.765 164L130.165 156.56L124.765 149.12H128.875L132.655 154.4L136.405 149.12H140.545L135.115 156.56L140.545 164H136.405L132.655 158.72L128.875 164H124.765ZM149.49 164.36C147.97 164.36 146.63 164.03 145.47 163.37C144.31 162.71 143.39 161.79 142.71 160.61C142.05 159.43 141.72 158.08 141.72 156.56C141.72 155.04 142.05 153.69 142.71 152.51C143.39 151.33 144.31 150.41 145.47 149.75C146.63 149.09 147.97 148.76 149.49 148.76C151.39 148.76 152.99 149.26 154.29 150.26C155.59 151.24 156.42 152.6 156.78 154.34H152.73C152.53 153.62 152.13 153.06 151.53 152.66C150.95 152.24 150.26 152.03 149.46 152.03C148.4 152.03 147.5 152.43 146.76 153.23C146.02 154.03 145.65 155.14 145.65 156.56C145.65 157.98 146.02 159.09 146.76 159.89C147.5 160.69 148.4 161.09 149.46 161.09C150.26 161.09 150.95 160.89 151.53 160.49C152.13 160.09 152.53 159.52 152.73 158.78H156.78C156.42 160.46 155.59 161.81 154.29 162.83C152.99 163.85 151.39 164.36 149.49 164.36ZM160.188 164V142.4H164.028V164H160.188ZM173.532 164.36C171.672 164.36 170.232 163.78 169.212 162.62C168.212 161.46 167.712 159.76 167.712 157.52V149.12H171.522V157.16C171.522 158.44 171.782 159.42 172.302 160.1C172.822 160.78 173.642 161.12 174.762 161.12C175.822 161.12 176.692 160.74 177.372 159.98C178.072 159.22 178.422 158.16 178.422 156.8V149.12H182.262V164H178.872L178.572 161.48C178.112 162.36 177.442 163.06 176.562 163.58C175.702 164.1 174.692 164.36 173.532 164.36ZM192.354 164.36C191.034 164.36 189.874 164.15 188.874 163.73C187.874 163.29 187.074 162.69 186.474 161.93C185.874 161.17 185.514 160.29 185.394 159.29H189.264C189.384 159.87 189.704 160.37 190.224 160.79C190.764 161.19 191.454 161.39 192.294 161.39C193.134 161.39 193.744 161.22 194.124 160.88C194.524 160.54 194.724 160.15 194.724 159.71C194.724 159.07 194.444 158.64 193.884 158.42C193.324 158.18 192.544 157.95 191.544 157.73C190.904 157.59 190.254 157.42 189.594 157.22C188.934 157.02 188.324 156.77 187.764 156.47C187.224 156.15 186.784 155.75 186.444 155.27C186.104 154.77 185.934 154.16 185.934 153.44C185.934 152.12 186.454 151.01 187.494 150.11C188.554 149.21 190.034 148.76 191.934 148.76C193.694 148.76 195.094 149.17 196.134 149.99C197.194 150.81 197.824 151.94 198.024 153.38H194.394C194.174 152.28 193.344 151.73 191.904 151.73C191.184 151.73 190.624 151.87 190.224 152.15C189.844 152.43 189.654 152.78 189.654 153.2C189.654 153.64 189.944 153.99 190.524 154.25C191.104 154.51 191.874 154.75 192.834 154.97C193.874 155.21 194.824 155.48 195.684 155.78C196.564 156.06 197.264 156.49 197.784 157.07C198.304 157.63 198.564 158.44 198.564 159.5C198.584 160.42 198.344 161.25 197.844 161.99C197.344 162.73 196.624 163.31 195.684 163.73C194.744 164.15 193.634 164.36 192.354 164.36ZM204.036 146.81C203.336 146.81 202.756 146.6 202.296 146.18C201.856 145.76 201.636 145.23 201.636 144.59C201.636 143.95 201.856 143.43 202.296 143.03C202.756 142.61 203.336 142.4 204.036 142.4C204.736 142.4 205.306 142.61 205.746 143.03C206.206 143.43 206.436 143.95 206.436 144.59C206.436 145.23 206.206 145.76 205.746 146.18C205.306 146.6 204.736 146.81 204.036 146.81ZM202.116 164V149.12H205.956V164H202.116ZM213.984 164L208.524 149.12H212.544L216.324 160.37L220.104 149.12H224.124L218.634 164H213.984ZM230.768 164.36C229.488 164.36 228.438 164.16 227.618 163.76C226.798 163.34 226.188 162.79 225.788 162.11C225.388 161.43 225.188 160.68 225.188 159.86C225.188 158.48 225.728 157.36 226.808 156.5C227.888 155.64 229.508 155.21 231.668 155.21H235.448V154.85C235.448 153.83 235.158 153.08 234.578 152.6C233.998 152.12 233.278 151.88 232.418 151.88C231.638 151.88 230.958 152.07 230.378 152.45C229.798 152.81 229.438 153.35 229.298 154.07H225.548C225.648 152.99 226.008 152.05 226.628 151.25C227.268 150.45 228.088 149.84 229.088 149.42C230.088 148.98 231.208 148.76 232.448 148.76C234.568 148.76 236.238 149.29 237.458 150.35C238.678 151.41 239.288 152.91 239.288 154.85V164H236.018L235.658 161.6C235.218 162.4 234.598 163.06 233.798 163.58C233.018 164.1 232.008 164.36 230.768 164.36ZM231.638 161.36C232.738 161.36 233.588 161 234.188 160.28C234.808 159.56 235.198 158.67 235.358 157.61H232.088C231.068 157.61 230.338 157.8 229.898 158.18C229.458 158.54 229.238 158.99 229.238 159.53C229.238 160.11 229.458 160.56 229.898 160.88C230.338 161.2 230.918 161.36 231.638 161.36ZM249.102 164.36C247.782 164.36 246.622 164.15 245.622 163.73C244.622 163.29 243.822 162.69 243.222 161.93C242.622 161.17 242.262 160.29 242.142 159.29H246.012C246.132 159.87 246.452 160.37 246.972 160.79C247.512 161.19 248.202 161.39 249.042 161.39C249.882 161.39 250.492 161.22 250.872 160.88C251.272 160.54 251.472 160.15 251.472 159.71C251.472 159.07 251.192 158.64 250.632 158.42C250.072 158.18 249.292 157.95 248.292 157.73C247.652 157.59 247.002 157.42 246.342 157.22C245.682 157.02 245.072 156.77 244.512 156.47C243.972 156.15 243.532 155.75 243.192 155.27C242.852 154.77 242.682 154.16 242.682 153.44C242.682 152.12 243.202 151.01 244.242 150.11C245.302 149.21 246.782 148.76 248.682 148.76C250.442 148.76 251.842 149.17 252.882 149.99C253.942 150.81 254.572 151.94 254.772 153.38H251.142C250.922 152.28 250.092 151.73 248.652 151.73C247.932 151.73 247.372 151.87 246.972 152.15C246.592 152.43 246.402 152.78 246.402 153.2C246.402 153.64 246.692 153.99 247.272 154.25C247.852 154.51 248.622 154.75 249.582 154.97C250.622 155.21 251.572 155.48 252.432 155.78C253.312 156.06 254.012 156.49 254.532 157.07C255.052 157.63 255.312 158.44 255.312 159.5C255.332 160.42 255.092 161.25 254.592 161.99C254.092 162.73 253.372 163.31 252.432 163.73C251.492 164.15 250.382 164.36 249.102 164.36ZM273.002 164.36C271.562 164.36 270.262 164.03 269.102 163.37C267.962 162.71 267.052 161.8 266.372 160.64C265.712 159.46 265.382 158.1 265.382 156.56C265.382 155.02 265.722 153.67 266.402 152.51C267.082 151.33 267.992 150.41 269.132 149.75C270.292 149.09 271.592 148.76 273.032 148.76C274.452 148.76 275.732 149.09 276.872 149.75C278.032 150.41 278.942 151.33 279.602 152.51C280.282 153.67 280.622 155.02 280.622 156.56C280.622 158.1 280.282 159.46 279.602 160.64C278.942 161.8 278.032 162.71 276.872 163.37C275.712 164.03 274.422 164.36 273.002 164.36ZM273.002 161.03C274.002 161.03 274.872 160.66 275.612 159.92C276.352 159.16 276.722 158.04 276.722 156.56C276.722 155.08 276.352 153.97 275.612 153.23C274.872 152.47 274.012 152.09 273.032 152.09C272.012 152.09 271.132 152.47 270.392 153.23C269.672 153.97 269.312 155.08 269.312 156.56C269.312 158.04 269.672 159.16 270.392 159.92C271.132 160.66 272.002 161.03 273.002 161.03ZM284.745 164V152.33H282.705V149.12H284.745V147.38C284.745 145.58 285.195 144.3 286.095 143.54C287.015 142.78 288.255 142.4 289.815 142.4H291.465V145.67H290.415C289.755 145.67 289.285 145.8 289.005 146.06C288.725 146.32 288.585 146.76 288.585 147.38V149.12H291.795V152.33H288.585V164H284.745ZM301.481 164.36C299.981 164.36 298.651 164.04 297.491 163.4C296.331 162.76 295.421 161.86 294.761 160.7C294.101 159.54 293.771 158.2 293.771 156.68C293.771 155.14 294.091 153.77 294.731 152.57C295.391 151.37 296.291 150.44 297.431 149.78C298.591 149.1 299.951 148.76 301.511 148.76C302.971 148.76 304.261 149.08 305.381 149.72C306.501 150.36 307.371 151.24 307.991 152.36C308.631 153.46 308.951 154.69 308.951 156.05C308.951 156.27 308.941 156.5 308.921 156.74C308.921 156.98 308.911 157.23 308.891 157.49H297.581C297.661 158.65 298.061 159.56 298.781 160.22C299.521 160.88 300.411 161.21 301.451 161.21C302.231 161.21 302.881 161.04 303.401 160.7C303.941 160.34 304.341 159.88 304.601 159.32H308.501C308.221 160.26 307.751 161.12 307.091 161.9C306.451 162.66 305.651 163.26 304.691 163.7C303.751 164.14 302.681 164.36 301.481 164.36ZM301.511 151.88C300.571 151.88 299.741 152.15 299.021 152.69C298.301 153.21 297.841 154.01 297.641 155.09H305.051C304.991 154.11 304.631 153.33 303.971 152.75C303.311 152.17 302.491 151.88 301.511 151.88ZM312.18 164V149.12H315.6L315.96 151.91C316.5 150.95 317.23 150.19 318.15 149.63C319.09 149.05 320.19 148.76 321.45 148.76V152.81H320.37C319.53 152.81 318.78 152.94 318.12 153.2C317.46 153.46 316.94 153.91 316.56 154.55C316.2 155.19 316.02 156.08 316.02 157.22V164H312.18ZM330.705 164C329.145 164 327.895 163.62 326.955 162.86C326.015 162.1 325.545 160.75 325.545 158.81V152.33H322.995V149.12H325.545L325.995 145.13H329.385V149.12H333.405V152.33H329.385V158.84C329.385 159.56 329.535 160.06 329.835 160.34C330.155 160.6 330.695 160.73 331.455 160.73H333.315V164H330.705ZM341.832 164.36C340.552 164.36 339.502 164.16 338.682 163.76C337.862 163.34 337.252 162.79 336.852 162.11C336.452 161.43 336.252 160.68 336.252 159.86C336.252 158.48 336.792 157.36 337.872 156.5C338.952 155.64 340.572 155.21 342.732 155.21H346.512V154.85C346.512 153.83 346.222 153.08 345.642 152.6C345.062 152.12 344.342 151.88 343.482 151.88C342.702 151.88 342.022 152.07 341.442 152.45C340.862 152.81 340.502 153.35 340.362 154.07H336.612C336.712 152.99 337.072 152.05 337.692 151.25C338.332 150.45 339.152 149.84 340.152 149.42C341.152 148.98 342.272 148.76 343.512 148.76C345.632 148.76 347.302 149.29 348.522 150.35C349.742 151.41 350.352 152.91 350.352 154.85V164H347.082L346.722 161.6C346.282 162.4 345.662 163.06 344.862 163.58C344.082 164.1 343.072 164.36 341.832 164.36ZM342.702 161.36C343.802 161.36 344.652 161 345.252 160.28C345.872 159.56 346.262 158.67 346.422 157.61H343.152C342.132 157.61 341.402 157.8 340.962 158.18C340.522 158.54 340.302 158.99 340.302 159.53C340.302 160.11 340.522 160.56 340.962 160.88C341.402 161.2 341.982 161.36 342.702 161.36ZM360.166 164.36C358.846 164.36 357.686 164.15 356.686 163.73C355.686 163.29 354.886 162.69 354.286 161.93C353.686 161.17 353.326 160.29 353.206 159.29H357.076C357.196 159.87 357.516 160.37 358.036 160.79C358.576 161.19 359.266 161.39 360.106 161.39C360.946 161.39 361.556 161.22 361.936 160.88C362.336 160.54 362.536 160.15 362.536 159.71C362.536 159.07 362.256 158.64 361.696 158.42C361.136 158.18 360.356 157.95 359.356 157.73C358.716 157.59 358.066 157.42 357.406 157.22C356.746 157.02 356.136 156.77 355.576 156.47C355.036 156.15 354.596 155.75 354.256 155.27C353.916 154.77 353.746 154.16 353.746 153.44C353.746 152.12 354.266 151.01 355.306 150.11C356.366 149.21 357.846 148.76 359.746 148.76C361.506 148.76 362.906 149.17 363.946 149.99C365.006 150.81 365.636 151.94 365.836 153.38H362.206C361.986 152.28 361.156 151.73 359.716 151.73C358.996 151.73 358.436 151.87 358.036 152.15C357.656 152.43 357.466 152.78 357.466 153.2C357.466 153.64 357.756 153.99 358.336 154.25C358.916 154.51 359.686 154.75 360.646 154.97C361.686 155.21 362.636 155.48 363.496 155.78C364.376 156.06 365.076 156.49 365.596 157.07C366.116 157.63 366.376 158.44 366.376 159.5C366.396 160.42 366.156 161.25 365.656 161.99C365.156 162.73 364.436 163.31 363.496 163.73C362.556 164.15 361.446 164.36 360.166 164.36ZM370.438 158.18L370.138 143H372.868L372.568 158.18H370.438ZM371.578 164.15C371.078 164.15 370.658 163.99 370.318 163.67C369.998 163.33 369.838 162.92 369.838 162.44C369.838 161.96 369.998 161.56 370.318 161.24C370.658 160.9 371.078 160.73 371.578 160.73C372.058 160.73 372.458 160.9 372.778 161.24C373.118 161.56 373.288 161.96 373.288 162.44C373.288 162.92 373.118 163.33 372.778 163.67C372.458 163.99 372.058 164.15 371.578 164.15Z" fill="#1E2B4B"/>
<path d="M160.26 97.7501H258.267V99.2501H160.26V97.7501Z" fill="#1E2B4B"/>
<path d="M848 195L455 195C435.67 195 420 179.33 420 160L420 80C420 60.6701 435.67 45 455 45L848 45L848 195Z" fill="#1E2B4B"/>
<path d="M452.26 96.5201C451.326 96.5201 450.553 96.2267 449.94 95.6401C449.353 95.0534 449.06 94.3334 449.06 93.4801C449.06 92.6534 449.353 91.9467 449.94 91.3601C450.553 90.7734 451.326 90.4801 452.26 90.4801C453.193 90.4801 453.953 90.7734 454.54 91.3601C455.153 91.9467 455.46 92.6534 455.46 93.4801C455.46 94.3334 455.153 95.0534 454.54 95.6401C453.953 96.2267 453.193 96.5201 452.26 96.5201ZM449.66 119.24C447.846 119.24 446.246 118.907 444.86 118.24C443.5 117.573 442.433 116.613 441.66 115.36C440.886 114.107 440.5 112.6 440.5 110.84C440.5 109 440.9 107.48 441.7 106.28C442.5 105.08 443.606 104.187 445.02 103.6C446.433 102.987 448.046 102.68 449.86 102.68L450.02 99.4401H454.54L454.7 106.08H452.86C451.5 106.08 450.26 106.2 449.14 106.44C448.02 106.68 447.126 107.147 446.46 107.84C445.793 108.507 445.46 109.507 445.46 110.84C445.46 112.12 445.846 113.133 446.62 113.88C447.393 114.627 448.42 115 449.7 115C451.033 115 452.073 114.627 452.82 113.88C453.566 113.133 453.94 112.133 453.94 110.88H458.78C458.806 112.507 458.46 113.947 457.74 115.2C457.02 116.453 455.966 117.44 454.58 118.16C453.22 118.88 451.58 119.24 449.66 119.24ZM467.045 113V103.04L457.645 85.0001H463.445L469.645 97.9201L475.805 85.0001H481.525L472.165 103.04V113H467.045ZM487.483 113.48C485.776 113.48 484.376 113.213 483.283 112.68C482.189 112.12 481.376 111.387 480.843 110.48C480.309 109.573 480.043 108.573 480.043 107.48C480.043 105.64 480.763 104.147 482.203 103C483.643 101.853 485.803 101.28 488.683 101.28H493.723V100.8C493.723 99.4401 493.336 98.4401 492.563 97.8001C491.789 97.1601 490.829 96.8401 489.683 96.8401C488.643 96.8401 487.736 97.0934 486.963 97.6001C486.189 98.0801 485.709 98.8001 485.523 99.7601H480.523C480.656 98.3201 481.136 97.0667 481.963 96.0001C482.816 94.9334 483.909 94.1201 485.243 93.5601C486.576 92.9734 488.069 92.6801 489.723 92.6801C492.549 92.6801 494.776 93.3867 496.403 94.8001C498.029 96.2134 498.843 98.2134 498.843 100.8V113H494.483L494.003 109.8C493.416 110.867 492.589 111.747 491.523 112.44C490.483 113.133 489.136 113.48 487.483 113.48ZM488.643 109.48C490.109 109.48 491.243 109 492.043 108.04C492.869 107.08 493.389 105.893 493.603 104.48H489.243C487.883 104.48 486.909 104.733 486.323 105.24C485.736 105.72 485.443 106.32 485.443 107.04C485.443 107.813 485.736 108.413 486.323 108.84C486.909 109.267 487.683 109.48 488.643 109.48ZM521.3 113.48C519.3 113.48 517.526 113.053 515.98 112.2C514.433 111.347 513.22 110.147 512.34 108.6C511.46 107.053 511.02 105.267 511.02 103.24C511.02 101.187 511.446 99.3601 512.3 97.7601C513.18 96.1601 514.38 94.9201 515.9 94.0401C517.446 93.1334 519.26 92.6801 521.34 92.6801C523.286 92.6801 525.006 93.1067 526.5 93.9601C527.993 94.8134 529.153 95.9867 529.98 97.4801C530.833 98.9467 531.26 100.587 531.26 102.4C531.26 102.693 531.246 103 531.22 103.32C531.22 103.64 531.206 103.973 531.18 104.32H516.1C516.206 105.867 516.74 107.08 517.7 107.96C518.686 108.84 519.873 109.28 521.26 109.28C522.3 109.28 523.166 109.053 523.86 108.6C524.58 108.12 525.113 107.507 525.46 106.76H530.66C530.286 108.013 529.66 109.16 528.78 110.2C527.926 111.213 526.86 112.013 525.58 112.6C524.326 113.187 522.9 113.48 521.3 113.48ZM521.34 96.8401C520.086 96.8401 518.98 97.2001 518.02 97.9201C517.06 98.6134 516.446 99.6801 516.18 101.12H526.06C525.98 99.8134 525.5 98.7734 524.62 98.0001C523.74 97.2267 522.646 96.8401 521.34 96.8401ZM534.766 113V93.1601H539.326L539.806 96.8801C540.526 95.6001 541.499 94.5867 542.726 93.8401C543.979 93.0667 545.446 92.6801 547.126 92.6801V98.0801H545.686C544.566 98.0801 543.566 98.2534 542.686 98.6001C541.806 98.9467 541.113 99.5467 540.606 100.4C540.126 101.253 539.886 102.44 539.886 103.96V113H534.766ZM559.114 113.48C557.114 113.48 555.341 113.053 553.794 112.2C552.247 111.347 551.034 110.147 550.154 108.6C549.274 107.053 548.834 105.267 548.834 103.24C548.834 101.187 549.261 99.3601 550.114 97.7601C550.994 96.1601 552.194 94.9201 553.714 94.0401C555.261 93.1334 557.074 92.6801 559.154 92.6801C561.101 92.6801 562.821 93.1067 564.314 93.9601C565.807 94.8134 566.967 95.9867 567.794 97.4801C568.647 98.9467 569.074 100.587 569.074 102.4C569.074 102.693 569.061 103 569.034 103.32C569.034 103.64 569.021 103.973 568.994 104.32H553.914C554.021 105.867 554.554 107.08 555.514 107.96C556.501 108.84 557.687 109.28 559.074 109.28C560.114 109.28 560.981 109.053 561.674 108.6C562.394 108.12 562.927 107.507 563.274 106.76H568.474C568.101 108.013 567.474 109.16 566.594 110.2C565.741 111.213 564.674 112.013 563.394 112.6C562.141 113.187 560.714 113.48 559.114 113.48ZM559.154 96.8401C557.901 96.8401 556.794 97.2001 555.834 97.9201C554.874 98.6134 554.261 99.6801 553.994 101.12H563.874C563.794 99.8134 563.314 98.7734 562.434 98.0001C561.554 97.2267 560.461 96.8401 559.154 96.8401ZM580.78 113.48C579.02 113.48 577.473 113.2 576.14 112.64C574.807 112.053 573.74 111.253 572.94 110.24C572.14 109.227 571.66 108.053 571.5 106.72H576.66C576.82 107.493 577.247 108.16 577.94 108.72C578.66 109.253 579.58 109.52 580.7 109.52C581.82 109.52 582.633 109.293 583.14 108.84C583.673 108.387 583.94 107.867 583.94 107.28C583.94 106.427 583.567 105.853 582.82 105.56C582.073 105.24 581.033 104.933 579.7 104.64C578.847 104.453 577.98 104.227 577.1 103.96C576.22 103.693 575.407 103.36 574.66 102.96C573.94 102.533 573.353 102 572.9 101.36C572.447 100.693 572.22 99.8801 572.22 98.9201C572.22 97.1601 572.913 95.6801 574.3 94.4801C575.713 93.2801 577.687 92.6801 580.22 92.6801C582.567 92.6801 584.433 93.2267 585.82 94.3201C587.233 95.4134 588.073 96.9201 588.34 98.8401H583.5C583.207 97.3734 582.1 96.6401 580.18 96.6401C579.22 96.6401 578.473 96.8267 577.94 97.2001C577.433 97.5734 577.18 98.0401 577.18 98.6001C577.18 99.1867 577.567 99.6534 578.34 100C579.113 100.347 580.14 100.667 581.42 100.96C582.807 101.28 584.073 101.64 585.22 102.04C586.393 102.413 587.327 102.987 588.02 103.76C588.713 104.507 589.06 105.587 589.06 107C589.087 108.227 588.767 109.333 588.1 110.32C587.433 111.307 586.473 112.08 585.22 112.64C583.967 113.2 582.487 113.48 580.78 113.48ZM601.527 121.8V93.1601H606.087L606.647 96.0001C607.287 95.1201 608.127 94.3467 609.167 93.6801C610.234 93.0134 611.607 92.6801 613.287 92.6801C615.154 92.6801 616.82 93.1334 618.287 94.0401C619.754 94.9467 620.914 96.1867 621.767 97.7601C622.62 99.3334 623.047 101.12 623.047 103.12C623.047 105.12 622.62 106.907 621.767 108.48C620.914 110.027 619.754 111.253 618.287 112.16C616.82 113.04 615.154 113.48 613.287 113.48C611.794 113.48 610.487 113.2 609.367 112.64C608.247 112.08 607.34 111.293 606.647 110.28V121.8H601.527ZM612.207 109C613.834 109 615.18 108.453 616.247 107.36C617.314 106.267 617.847 104.853 617.847 103.12C617.847 101.387 617.314 99.9601 616.247 98.8401C615.18 97.7201 613.834 97.1601 612.207 97.1601C610.554 97.1601 609.194 97.7201 608.127 98.8401C607.087 99.9334 606.567 101.347 606.567 103.08C606.567 104.813 607.087 106.24 608.127 107.36C609.194 108.453 610.554 109 612.207 109ZM633.661 113.48C631.954 113.48 630.554 113.213 629.461 112.68C628.367 112.12 627.554 111.387 627.021 110.48C626.487 109.573 626.221 108.573 626.221 107.48C626.221 105.64 626.941 104.147 628.381 103C629.821 101.853 631.981 101.28 634.861 101.28H639.901V100.8C639.901 99.4401 639.514 98.4401 638.741 97.8001C637.967 97.1601 637.007 96.8401 635.861 96.8401C634.821 96.8401 633.914 97.0934 633.141 97.6001C632.367 98.0801 631.887 98.8001 631.701 99.7601H626.701C626.834 98.3201 627.314 97.0667 628.141 96.0001C628.994 94.9334 630.087 94.1201 631.421 93.5601C632.754 92.9734 634.247 92.6801 635.901 92.6801C638.727 92.6801 640.954 93.3867 642.581 94.8001C644.207 96.2134 645.021 98.2134 645.021 100.8V113H640.661L640.181 109.8C639.594 110.867 638.767 111.747 637.701 112.44C636.661 113.133 635.314 113.48 633.661 113.48ZM634.821 109.48C636.287 109.48 637.421 109 638.221 108.04C639.047 107.08 639.567 105.893 639.781 104.48H635.421C634.061 104.48 633.087 104.733 632.501 105.24C631.914 105.72 631.621 106.32 631.621 107.04C631.621 107.813 631.914 108.413 632.501 108.84C633.087 109.267 633.861 109.48 634.821 109.48ZM649.107 113V93.1601H653.667L654.147 96.8801C654.867 95.6001 655.84 94.5867 657.067 93.8401C658.32 93.0667 659.787 92.6801 661.467 92.6801V98.0801H660.027C658.907 98.0801 657.907 98.2534 657.027 98.6001C656.147 98.9467 655.453 99.5467 654.947 100.4C654.467 101.253 654.227 102.44 654.227 103.96V113H649.107ZM673.006 113C670.926 113 669.259 112.493 668.006 111.48C666.753 110.467 666.126 108.667 666.126 106.08V97.4401H662.726V93.1601H666.126L666.726 87.8401H671.246V93.1601H676.606V97.4401H671.246V106.12C671.246 107.08 671.446 107.747 671.846 108.12C672.273 108.467 672.993 108.64 674.006 108.64H676.486V113H673.006ZM689.334 113.48C687.334 113.48 685.561 113.053 684.014 112.2C682.468 111.347 681.254 110.147 680.374 108.6C679.494 107.053 679.054 105.267 679.054 103.24C679.054 101.187 679.481 99.3601 680.334 97.7601C681.214 96.1601 682.414 94.9201 683.934 94.0401C685.481 93.1334 687.294 92.6801 689.374 92.6801C691.321 92.6801 693.041 93.1067 694.534 93.9601C696.028 94.8134 697.188 95.9867 698.014 97.4801C698.868 98.9467 699.294 100.587 699.294 102.4C699.294 102.693 699.281 103 699.254 103.32C699.254 103.64 699.241 103.973 699.214 104.32H684.134C684.241 105.867 684.774 107.08 685.734 107.96C686.721 108.84 687.908 109.28 689.294 109.28C690.334 109.28 691.201 109.053 691.894 108.6C692.614 108.12 693.148 107.507 693.494 106.76H698.694C698.321 108.013 697.694 109.16 696.814 110.2C695.961 111.213 694.894 112.013 693.614 112.6C692.361 113.187 690.934 113.48 689.334 113.48ZM689.374 96.8401C688.121 96.8401 687.014 97.2001 686.054 97.9201C685.094 98.6134 684.481 99.6801 684.214 101.12H694.094C694.014 99.8134 693.534 98.7734 692.654 98.0001C691.774 97.2267 690.681 96.8401 689.374 96.8401ZM491.353 153.48C489.486 153.48 487.82 153.027 486.353 152.12C484.886 151.213 483.726 149.973 482.873 148.4C482.02 146.827 481.593 145.04 481.593 143.04C481.593 141.04 482.02 139.267 482.873 137.72C483.726 136.147 484.886 134.92 486.353 134.04C487.82 133.133 489.486 132.68 491.353 132.68C492.846 132.68 494.153 132.96 495.273 133.52C496.393 134.08 497.3 134.867 497.993 135.88V124.2H503.113V153H498.553L497.993 150.16C497.353 151.04 496.5 151.813 495.433 152.48C494.393 153.147 493.033 153.48 491.353 153.48ZM492.433 149C494.086 149 495.433 148.453 496.473 147.36C497.54 146.24 498.073 144.813 498.073 143.08C498.073 141.347 497.54 139.933 496.473 138.84C495.433 137.72 494.086 137.16 492.433 137.16C490.806 137.16 489.46 137.707 488.393 138.8C487.326 139.893 486.793 141.307 486.793 143.04C486.793 144.773 487.326 146.2 488.393 147.32C489.46 148.44 490.806 149 492.433 149ZM517.167 153.48C515.167 153.48 513.393 153.053 511.847 152.2C510.3 151.347 509.087 150.147 508.207 148.6C507.327 147.053 506.887 145.267 506.887 143.24C506.887 141.187 507.313 139.36 508.167 137.76C509.047 136.16 510.247 134.92 511.767 134.04C513.313 133.133 515.127 132.68 517.207 132.68C519.153 132.68 520.873 133.107 522.367 133.96C523.86 134.813 525.02 135.987 525.847 137.48C526.7 138.947 527.127 140.587 527.127 142.4C527.127 142.693 527.113 143 527.087 143.32C527.087 143.64 527.073 143.973 527.047 144.32H511.967C512.073 145.867 512.607 147.08 513.567 147.96C514.553 148.84 515.74 149.28 517.127 149.28C518.167 149.28 519.033 149.053 519.727 148.6C520.447 148.12 520.98 147.507 521.327 146.76H526.527C526.153 148.013 525.527 149.16 524.647 150.2C523.793 151.213 522.727 152.013 521.447 152.6C520.193 153.187 518.767 153.48 517.167 153.48ZM517.207 136.84C515.953 136.84 514.847 137.2 513.887 137.92C512.927 138.613 512.313 139.68 512.047 141.12H521.927C521.847 139.813 521.367 138.773 520.487 138C519.607 137.227 518.513 136.84 517.207 136.84ZM683.435 143.19L683.255 135.765H685.325C686.855 135.765 688.25 135.63 689.51 135.36C690.77 135.09 691.775 134.565 692.525 133.785C693.275 133.005 693.65 131.865 693.65 130.365C693.65 128.925 693.215 127.8 692.345 126.99C691.475 126.15 690.32 125.73 688.88 125.73C687.38 125.73 686.21 126.15 685.37 126.99C684.53 127.8 684.11 128.91 684.11 130.32H678.665C678.635 128.52 679.025 126.915 679.835 125.505C680.645 124.095 681.815 122.985 683.345 122.175C684.905 121.365 686.765 120.96 688.925 120.96C690.935 120.96 692.705 121.335 694.235 122.085C695.795 122.835 697.01 123.915 697.88 125.325C698.78 126.705 699.23 128.4 699.23 130.41C699.23 132.48 698.765 134.19 697.835 135.54C696.935 136.89 695.69 137.895 694.1 138.555C692.54 139.215 690.725 139.56 688.655 139.59L688.52 143.19H683.435ZM686 153.315C684.95 153.315 684.08 152.985 683.39 152.325C682.73 151.665 682.4 150.87 682.4 149.94C682.4 148.98 682.73 148.17 683.39 147.51C684.08 146.85 684.95 146.52 686 146.52C687.05 146.52 687.905 146.85 688.565 147.51C689.225 148.17 689.555 148.98 689.555 149.94C689.555 150.87 689.225 151.665 688.565 152.325C687.905 152.985 687.05 153.315 686 153.315Z" fill="white"/>
<path d="M538.733 153V121.5H545.573L555.608 141.48L565.508 121.5H572.348V153H566.588V131.265L557.813 148.5H553.268L544.493 131.265V153H538.733ZM585.794 153.54C583.004 153.54 580.844 152.67 579.314 150.93C577.814 149.19 577.064 146.64 577.064 143.28V130.68H582.779V142.74C582.779 144.66 583.169 146.13 583.949 147.15C584.729 148.17 585.959 148.68 587.639 148.68C589.229 148.68 590.534 148.11 591.554 146.97C592.604 145.83 593.129 144.24 593.129 142.2V130.68H598.889V153H593.804L593.354 149.22C592.664 150.54 591.659 151.59 590.339 152.37C589.049 153.15 587.534 153.54 585.794 153.54ZM609.932 153L601.742 130.68H607.772L613.442 147.555L619.112 130.68H625.142L616.907 153H609.932ZM630.98 127.215C629.93 127.215 629.06 126.9 628.37 126.27C627.71 125.64 627.38 124.845 627.38 123.885C627.38 122.925 627.71 122.145 628.37 121.545C629.06 120.915 629.93 120.6 630.98 120.6C632.03 120.6 632.885 120.915 633.545 121.545C634.235 122.145 634.58 122.925 634.58 123.885C634.58 124.845 634.235 125.64 633.545 126.27C632.885 126.9 632.03 127.215 630.98 127.215ZM628.1 153V130.68H633.86V153H628.1ZM640.008 153V135.495H636.948V130.68H640.008V128.07C640.008 125.37 640.683 123.45 642.033 122.31C643.413 121.17 645.273 120.6 647.613 120.6H650.088V125.505H648.513C647.523 125.505 646.818 125.7 646.398 126.09C645.978 126.48 645.768 127.14 645.768 128.07V130.68H650.583V135.495H645.768V153H640.008ZM657.034 162.9L662.209 151.515H660.859L652.174 130.68H658.429L664.684 146.385L671.209 130.68H677.329L663.154 162.9H657.034Z" fill="#FFC72C"/>
</svg>
