<svg xmlns="http://www.w3.org/2000/svg" width="184" height="44" viewBox="0 0 184 44" fill="none">
  <path fill-rule="evenodd" clip-rule="evenodd" d="M58.3001 12.66C59.4101 12.63 59.9301 12.81 59.9201 14.13C59.8601 23.38 59.8801 32.63 59.9101 41.88C59.9101 42.9 59.6801 43.39 58.5601 43.57C57.4501 43.75 56.3501 43.92 55.2401 43.91C52.4601 43.89 50.2201 43.01 49.4301 39.91C46.7001 42.82 43.3201 43.81 39.5801 43.85C35.5701 43.89 33.2201 42.04 32.2201 38.13C32.1501 37.84 32.2701 37.47 31.7701 37.2C29.4501 39.77 26.6801 41.8 23.3101 42.9C21.0401 43.64 18.7401 44.05 16.3301 43.87C11.4101 43.5 7.78011 39.97 7.31011 35.06C6.90011 30.74 7.12011 26.41 7.13011 22.08C7.13011 20.68 6.88011 20.15 5.32011 20.18C0.780109 20.25 0.930108 20.17 0.710108 15.62C0.600108 13.36 1.31011 12.52 3.45011 11.89C8.52011 10.4 12.0401 7.01001 14.0701 2.11001C14.6301 0.760006 18.0001 -0.259995 19.1701 0.570005C19.7001 0.940005 19.4801 1.53 19.4801 2.03C19.5001 4.98 19.5401 7.94 19.4601 10.89C19.4301 12.18 19.6701 12.73 21.1501 12.72C25.4701 12.69 25.4701 12.76 25.4701 17.09C25.4701 19.1833 24.3968 20.23 22.2501 20.23C20.4034 20.23 19.4801 21.1667 19.4801 23.04C19.4801 25.27 19.4501 27.5 19.4801 29.73C19.5201 32.23 20.9301 33.44 23.4001 33.21C27.5501 32.81 32.0001 28.34 31.5101 24.31C31.1401 21.27 31.5101 18.15 31.4001 15.07C31.3601 13.86 31.8301 13.22 32.8701 12.87C33.8601 12.53 34.8501 12.1 35.8701 11.97C39.5201 11.5 41.3001 12.97 41.6601 16.64C42.0801 20.96 41.7801 25.29 41.8601 29.62C41.8801 30.88 41.8001 32.2 43.1301 32.9C44.4701 33.61 45.7301 32.98 46.8301 32.27C48.4601 31.22 49.3801 29.75 49.3501 27.68C49.2801 23.29 49.4001 18.89 49.2901 14.49C49.2501 12.97 49.7401 12.59 51.1901 12.66C53.5501 12.78 55.9201 12.74 58.2901 12.67L58.3001 12.66ZM146.1 12.73C147.05 12.71 147.5 12.87 147.49 13.99C147.45 23.37 147.46 32.75 147.48 42.13C147.48 42.99 147.26 43.37 146.34 43.57C144.64 43.94 142.95 44.04 141.25 43.84C139.03 43.58 137.6 42.28 136.94 39.99C134.02 43.03 130.43 43.99 126.5 43.91C122.26 43.82 119.14 40.8 119.08 36.54C118.98 29.26 119.05 21.98 119.06 14.69C119.06 14.26 118.91 13.76 119.43 13.46C121.6 12.21 123.89 11.36 126.38 12.17C128.69 12.92 129.21 15.01 129.27 17.09C129.4 21.35 129.35 25.62 129.38 29.88C129.4 32.99 131.12 34.06 133.86 32.6C135.78 31.58 136.9 30.08 136.85 27.73C136.75 23.27 136.87 18.81 136.79 14.35C136.77 13.07 137.11 12.66 138.42 12.71C140.98 12.81 143.55 12.77 146.11 12.72L146.1 12.73ZM168.95 25.13C173.63 27.69 175.47 31.16 174.75 35.86C174.32 38.69 172.63 40.61 170.18 41.9C165.44 44.4 160.52 44.33 155.54 42.73C150.11 40.99 150.11 40.97 151.39 35.48C151.45 35.23 151.5 34.97 151.54 34.71C151.74 33.45 152.1 32.89 153.5 33.77C155.47 35.01 157.67 35.71 160.05 35.57C160.69 35.53 161.34 35.36 161.96 35.16C162.65 34.94 163.01 34.4 163.02 33.66C163.02 32.97 162.62 32.6 162.04 32.33C160.08 31.42 158.06 30.6 156.18 29.54C151.1 26.67 149.67 20.17 153.25 15.93C155.65 13.09 158.89 11.83 162.62 11.89C163.01 11.89 163.41 11.89 164.26 11.89C167.94 11.85 170.38 12.87 173.51 14.07C174.44 14.43 174.56 14.92 174.38 15.87C173.59 20.05 172 21.17 168.01 20.11C166.98 19.84 165.95 19.75 164.89 19.81C164.06 19.86 163.26 20.06 163.03 20.96C162.78 21.9 163.47 22.42 164.19 22.79C165.77 23.59 167.4 24.28 168.95 25.13ZM83.3401 11.3C84.2301 11.07 84.6701 11.21 84.6501 12.28C84.6001 15.82 84.6101 19.36 84.6501 22.9C84.6601 23.81 84.4101 24.07 83.4501 24.15C77.8601 24.61 74.5001 28.31 74.5001 33.84C74.5001 36.59 74.4501 39.35 74.5201 42.1C74.5501 43.19 74.2401 43.59 73.1001 43.56C70.4101 43.48 67.7101 43.51 65.0201 43.56C64.1101 43.58 63.7601 43.34 63.7601 42.36C63.7901 33.12 63.7901 23.88 63.7601 14.64C63.7601 13.76 64.1501 13.38 64.8501 13.02C70.2901 10.18 73.8401 12.17 74.5601 18.64C75.4301 18.15 75.6001 17.4 75.9701 16.81C77.6901 13.99 80.1301 12.15 83.3401 11.32V11.3ZM103.17 13.07C107.49 12.16 111.28 13.82 113.16 17.81C116.05 23.95 115.99 30.17 112.78 36.16C109.65 42.02 102.99 44.83 95.5101 43.74C93.3701 43.43 91.2601 42.93 89.1801 42.32C87.9301 41.95 87.6101 41.32 87.6101 40.08C87.6501 27.94 87.6501 15.79 87.6101 3.65001C87.6101 2.49001 87.9401 1.78001 89.0101 1.38001C89.9901 1.02001 90.9401 0.570007 92.0201 0.490007C95.4301 0.210007 96.9201 1.29 97.4701 4.67C98.0501 8.18 97.5701 11.73 97.8101 15.51C99.6601 14.41 101.29 13.47 103.19 13.07H103.17ZM99.1101 34.76C102.47 34.32 105.13 31.13 105.22 27.38C105.28 24.98 103.97 23.24 102.04 23.16C99.6701 23.06 97.7201 24.94 97.7201 27.33C97.7201 28.25 97.7201 29.16 97.7201 30.08C97.7201 31.26 97.8001 32.44 97.7001 33.61C97.5901 34.81 98.1801 34.88 99.1101 34.76ZM180.22 36.93C181.76 36.93 183.01 38.18 183.01 39.71C183.01 41.24 181.76 42.49 180.22 42.49C178.68 42.49 177.43 41.24 177.43 39.71C177.43 38.18 178.68 36.93 180.22 36.93ZM180.22 42.21C181.6 42.21 182.73 41.09 182.73 39.71C182.73 38.33 181.61 37.21 180.22 37.21C178.83 37.21 177.71 38.33 177.71 39.71C177.71 41.09 178.83 42.21 180.22 42.21ZM180.63 39.91C181.11 40.66 181.36 41.04 181.36 41.06C181.36 41.06 181.36 41.08 181.36 41.12C181.36 41.2 181.31 41.24 181.2 41.27C181.12 41.27 181.01 41.14 180.87 40.87C180.51 40.31 180.32 40.01 180.32 39.98C180.2 39.98 180.11 39.99 180.06 39.99H179.73V41.06C179.73 41.16 179.7 41.23 179.64 41.26C179.62 41.26 179.6 41.27 179.58 41.27H179.56C179.48 41.27 179.43 41.21 179.41 41.09V38.34C179.41 38.22 179.47 38.16 179.59 38.16H180.11C180.57 38.16 180.89 38.34 181.07 38.69C181.11 38.81 181.13 38.92 181.13 39.02C181.13 39.41 180.96 39.69 180.62 39.87V39.92L180.63 39.91ZM180.14 39.67C180.49 39.67 180.71 39.51 180.81 39.2C180.82 39.13 180.83 39.08 180.83 39.03V38.98C180.83 38.69 180.63 38.52 180.24 38.46H179.73V39.67H180.14Z" fill="#499C24"/>
</svg>