<svg width="54" height="54" viewBox="0 0 18 27" fill="none" xmlns="http://www.w3.org/2000/svg">
<g clip-path="url(#clip0_639_25)">
<path d="M4.26397 26.3982C2.06796 26.3982 0.266554 24.6249 0.235805 22.4212L0.148682 15.5846L1.42991 15.5693L1.51703 22.4059C1.53753 23.91 2.76494 25.1169 4.26397 25.1169C4.27679 25.1169 4.2896 25.1169 4.30241 25.1169H4.55353C4.8969 23.8511 6.05513 22.1291 8.7662 22.0932C8.79182 22.0932 8.82001 22.0932 8.84563 22.0932C11.5055 22.0932 12.8354 23.7819 13.3094 25.0016H13.376C14.8905 24.9811 16.1076 23.7307 16.0871 22.2162L16 15.3796L17.2812 15.3643L17.3683 22.2009C17.3991 24.4225 15.6131 26.2521 13.3914 26.2829L12.8456 26.288H12.8379C12.5381 26.288 12.2768 26.0779 12.2127 25.7857C12.1896 25.6909 11.6208 23.3745 8.84563 23.3745C8.82513 23.3745 8.80207 23.3745 8.78157 23.3745C6.05256 23.4078 5.74507 25.5628 5.71945 25.8088C5.68613 26.1317 5.41451 26.3828 5.09165 26.3854L4.31779 26.3956C4.29985 26.3956 4.28191 26.3956 4.26397 26.3956V26.3982Z" fill="#CCFF66"/>
<path d="M0.0869645 11.0339L-0.000158718 4.19729C-0.0283457 1.97565 1.75512 0.143497 3.97676 0.11531L4.52256 0.110185H4.53025C4.83006 0.110185 5.09143 0.320306 5.15549 0.612425C5.17855 0.707236 5.74741 3.02369 8.52255 3.02369C8.54305 3.02369 8.56611 3.02369 8.58661 3.02369C11.3925 2.98782 11.6385 0.689299 11.6487 0.591926C11.6795 0.266495 11.9511 0.0153747 12.2791 0.0102498L13.0504 0C13.0683 0 13.0863 0 13.1042 0C15.3002 0 17.1016 1.77321 17.1324 3.97692L17.2195 10.8135L15.9383 10.8289L15.8512 3.9923C15.8307 2.47789 14.593 1.25304 13.0683 1.28122H12.8172C12.4738 2.54707 11.3156 4.26904 8.60455 4.30491C5.8986 4.33566 4.53794 2.62907 4.06132 1.39653H3.9947C2.48029 1.41703 1.26313 2.66751 1.28363 4.18192L1.37075 11.0185L0.089527 11.0339H0.0869645Z" fill="#CCFF66"/>
<path d="M5.8033 9.07695L4.89734 9.98291L11.5652 16.6508L12.4712 15.7448L5.8033 9.07695Z" fill="#CCFF66"/>
<path d="M11.5652 9.07723L4.89734 15.7451L5.8033 16.6511L12.4712 9.9832L11.5652 9.07723Z" fill="#CCFF66"/>
</g>
<defs>
<clipPath id="clip0_639_25">
<rect width="17.3683" height="26.3983" fill="white"/>
</clipPath>
</defs>
</svg>
