<svg width="69" height="69" viewBox="0 0 69 69" fill="none" xmlns="http://www.w3.org/2000/svg">
<g clip-path="url(#clip0_344_2)">
<path d="M34.5 69C53.5538 69 69 53.5538 69 34.5C69 15.4462 53.5538 0 34.5 0C15.4462 0 0 15.4462 0 34.5C0 53.5538 15.4462 69 34.5 69Z" fill="#1E2B4B"/>
<path d="M44.1453 13.9C40.2412 13.9 36.6313 16.0998 34.5 19.6494C32.3727 16.0998 28.7627 13.9 24.8546 13.9C18.4607 13.9 13.2593 19.6896 13.2593 26.8128C13.2593 28.2673 13.4768 29.6976 13.9079 31.0634C14.3793 32.5743 15.0965 33.9602 16.0312 35.177C16.2327 35.4429 16.4422 35.6967 16.6597 35.9425L18.5977 35.048C18.2512 34.7136 17.9288 34.343 17.6307 33.9562C16.837 32.9208 16.2327 31.7443 15.8257 30.4591C15.4591 29.2907 15.2738 28.0618 15.2738 26.8128C15.2738 20.8016 19.5727 15.9145 24.8546 15.9145C28.5854 15.9145 32.006 18.4125 33.5652 22.2803C33.7183 22.663 34.089 22.9128 34.5 22.9128C34.9109 22.9128 35.2776 22.663 35.4347 22.2803C36.9979 18.4125 40.4185 15.9145 44.1453 15.9145C49.4313 15.9145 53.7302 20.8016 53.7302 26.8128C53.7302 28.09 53.5328 29.343 53.15 30.5396C52.6706 32.0304 51.889 33.4163 50.8858 34.5444C50.8696 34.5605 50.8535 34.5807 50.8414 34.5968L50.221 35.2898L52.1347 36.1721L52.3886 35.8861C52.3886 35.8861 52.4288 35.8418 52.445 35.8216C53.6053 34.4961 54.5118 32.8845 55.0678 31.1561C55.515 29.762 55.7447 28.2995 55.7447 26.8128C55.7447 19.6896 50.5393 13.9 44.1453 13.9ZM34.5282 52.8158L21.5348 38.3115L19.6976 39.2825L33.4121 54.5925C33.6982 54.9149 34.1051 55.0962 34.5241 55.0962C34.9432 55.0962 35.3541 54.9149 35.6402 54.5966L49.113 39.5484L47.2758 38.5814L34.5282 52.8158Z" fill="#CCFF36"/>
</g>
<defs>
<clipPath id="clip0_344_2">
<rect width="69" height="69" fill="white"/>
</clipPath>
</defs>
</svg>
