<svg width="88" height="89" viewBox="0 0 88 89" fill="none" xmlns="http://www.w3.org/2000/svg">
<g clip-path="url(#clip0_748_3244)">
<path d="M44 88.1582C68.3005 88.1582 88 68.4587 88 44.1582C88 19.8577 68.3005 0.158203 44 0.158203C19.6995 0.158203 0 19.8577 0 44.1582C0 68.4587 19.6995 88.1582 44 88.1582Z" fill="#1E2B4B"/>
<path d="M36.9554 50.4527C38.6922 47.9297 40.429 45.4068 42.1657 42.8838C35.6503 40.3095 29.1297 37.7352 22.6142 35.1608C20.6051 34.3644 21.0521 31.3995 23.2102 31.2351C32.8601 30.5055 42.51 29.7758 52.1599 29.0462C52.9255 27.1295 55.0066 22.7157 59.7904 19.7405C61.039 18.9647 62.262 18.4148 63.3719 18.0295C64.2865 17.7109 65.2474 18.3737 65.2782 19.3398C65.3142 20.5627 65.2268 21.9809 64.8825 23.5275C63.6545 29.041 59.9908 32.345 58.5521 33.5166C61.2292 42.704 63.9114 51.8914 66.5885 61.0789C67.1897 63.1342 64.6102 64.6038 63.1458 63.0417C58.2849 57.852 53.4188 52.6673 48.5579 47.4776C45.6804 51.6756 42.808 55.8737 39.9305 60.0717C40.3673 61.8702 40.7989 63.6686 41.2357 65.4722C40.2234 67.1062 39.2112 68.7402 38.1938 70.3742C36.7242 67.4762 35.2546 64.5832 33.7902 61.6852C30.5016 61.3974 27.213 61.1046 23.9245 60.8168L27.7731 55.7915C29.551 55.8942 31.3289 55.997 33.1119 56.0998C33.6309 55.3753 34.1447 54.6507 34.6637 53.9262" stroke="#CCFF66" stroke-width="1.75172" stroke-linejoin="round"/>
</g>
<defs>
<clipPath id="clip0_748_3244">
<rect width="88" height="88" fill="white" transform="translate(0 0.158203)"/>
</clipPath>
</defs>
</svg>
