<svg width="88" height="89" viewBox="0 0 88 89" fill="none" xmlns="http://www.w3.org/2000/svg">
<g clip-path="url(#clip0_751_101)">
<path d="M44 88.3716C68.3005 88.3716 88 68.6721 88 44.3716C88 20.0711 68.3005 0.371582 44 0.371582C19.6995 0.371582 0 20.0711 0 44.3716C0 68.6721 19.6995 88.3716 44 88.3716Z" fill="#CCFF66"/>
<path d="M36.9554 50.6661C38.6922 48.1431 40.429 45.6202 42.1657 43.0972C35.6503 40.5229 29.1297 37.9486 22.6142 35.3742C20.6051 34.5778 21.0521 31.6129 23.2102 31.4485C32.8601 30.7188 42.51 29.9892 52.1599 29.2595C52.9255 27.3429 55.0066 22.9291 59.7904 19.9539C61.039 19.178 62.262 18.6282 63.3719 18.2428C64.2865 17.9243 65.2474 18.5871 65.2782 19.5531C65.3142 20.7761 65.2268 22.1943 64.8825 23.7409C63.6545 29.2544 59.9908 32.5584 58.5521 33.7299C61.2292 42.9174 63.9114 52.1048 66.5885 61.2922C67.1897 63.3476 64.6102 64.8172 63.1458 63.2551C58.2849 58.0653 53.4188 52.8807 48.5579 47.6909C45.6804 51.889 42.808 56.0871 39.9305 60.2851C40.3673 62.0836 40.7989 63.882 41.2357 65.6856C40.2234 67.3196 39.2112 68.9536 38.1938 70.5876C36.7242 67.6895 35.2546 64.7966 33.7902 61.8986C30.5016 61.6108 27.213 61.3179 23.9245 61.0302L27.7731 56.0048C29.551 56.1076 31.3289 56.2104 33.1119 56.3132C33.6309 55.5886 34.1447 54.8641 34.6637 54.1396" stroke="#1E2B4B" stroke-width="1.75172" stroke-linejoin="round"/>
</g>
<defs>
<clipPath id="clip0_751_101">
<rect width="88" height="88" fill="white" transform="translate(0 0.371582)"/>
</clipPath>
</defs>
</svg>
