<svg width="88" height="88" viewBox="0 0 88 88" fill="none" xmlns="http://www.w3.org/2000/svg">
<g clip-path="url(#clip0_748_3301)">
<path d="M44 88C68.3005 88 88 68.3005 88 44C88 19.6995 68.3005 0 44 0C19.6995 0 0 19.6995 0 44C0 68.3005 19.6995 88 44 88Z" fill="#CCFF66"/>
<path fill-rule="evenodd" clip-rule="evenodd" d="M66.5163 35.1619L62.904 22.5061C62.7448 21.9357 62.2206 21.54 61.6246 21.54H26.3753C25.7792 21.54 25.2602 21.9357 25.1009 22.5061L21.4835 35.1619C21.4475 35.2801 21.4321 35.4034 21.4321 35.5267V50.3921H24.0938V36.8576H38.4402V48.5166C38.4402 49.2514 39.0362 49.8423 39.771 49.8423C40.0331 49.8423 40.29 49.7652 40.5058 49.6162L44.0051 47.2474L47.494 49.6162C48.1004 50.0273 48.9276 49.868 49.3387 49.2565C49.4826 49.0407 49.5648 48.7838 49.5648 48.5166V36.8576H63.9214V63.8084H24.0938V54.7032H21.4321V65.1341C21.4321 65.8638 22.023 66.465 22.7578 66.465H65.242C65.9768 66.465 66.5677 65.8638 66.5677 65.1341V35.6141C66.578 35.4599 66.5574 35.3058 66.5163 35.1619ZM38.4402 34.201H24.51L27.3772 24.1914H38.4402V34.201ZM46.9083 46.009L44.7501 44.5497C44.2979 44.2414 43.7019 44.2414 43.2497 44.5497L41.0967 46.009V24.1914H46.9083V46.009ZM49.5648 34.201V24.1914H60.6277L63.4898 34.201H49.5648Z" fill="#1E2B4B"/>
</g>
<defs>
<clipPath id="clip0_748_3301">
<rect width="88" height="88" fill="white"/>
</clipPath>
</defs>
</svg>
