<svg width="89" height="89" viewBox="0 0 89 89" fill="none" xmlns="http://www.w3.org/2000/svg">
<g clip-path="url(#clip0_748_3266)">
<path d="M44.5606 88.5667C68.8611 88.5667 88.5606 68.8672 88.5606 44.5667C88.5606 20.2661 68.8611 0.56665 44.5606 0.56665C20.26 0.56665 0.560547 20.2661 0.560547 44.5667C0.560547 68.8672 20.26 88.5667 44.5606 88.5667Z" fill="#1E2B4B"/>
<path fill-rule="evenodd" clip-rule="evenodd" d="M67.0769 35.7286L63.4646 23.0727C63.3053 22.5023 62.7812 22.1067 62.1851 22.1067H26.9358C26.3398 22.1067 25.8208 22.5023 25.6615 23.0727L22.0441 35.7286C22.0081 35.8467 21.9927 35.9701 21.9927 36.0934V50.9587H24.6544V37.4242H39.0007V49.0832C39.0007 49.818 39.5968 50.4089 40.3316 50.4089C40.5936 50.4089 40.8506 50.3318 41.0664 50.1828L44.5656 47.814L48.0546 50.1828C48.6609 50.5939 49.4882 50.4346 49.8993 49.8231C50.0431 49.6073 50.1253 49.3504 50.1253 49.0832V37.4242H64.482V64.3751H24.6544V55.2698H21.9927V65.7008C21.9927 66.4304 22.5836 67.0316 23.3184 67.0316H65.8026C66.5373 67.0316 67.1283 66.4304 67.1283 65.7008V36.1807C67.1385 36.0266 67.118 35.8724 67.0769 35.7286ZM39.0007 34.7677H25.0706L27.9378 24.7581H39.0007V34.7677ZM47.4688 46.5757L45.3107 45.1164C44.8585 44.8081 44.2624 44.8081 43.8103 45.1164L41.6573 46.5757V24.7581H47.4688V46.5757ZM50.1253 34.7677V24.7581H61.1883L64.0504 34.7677H50.1253Z" fill="#CCFF66"/>
</g>
<defs>
<clipPath id="clip0_748_3266">
<rect width="88" height="88" fill="white" transform="translate(0.560547 0.56665)"/>
</clipPath>
</defs>
</svg>
