<svg width="84" height="89" viewBox="0 0 84 89" fill="none" xmlns="http://www.w3.org/2000/svg">
<g clip-path="url(#clip0_751_450)">
<path d="M41.9369 88.84C65.098 88.84 83.8738 68.9525 83.8738 44.42C83.8738 19.8875 65.098 0 41.9369 0C18.7758 0 0 19.8875 0 44.42C0 68.9525 18.7758 88.84 41.9369 88.84Z" fill="#CCFF66"/>
<path d="M63.7362 65.2598H20.2038C18.6838 65.2598 17.447 63.9498 17.447 62.3398V59.7298C17.447 58.1198 18.6838 56.8098 20.2038 56.8098H63.7362C65.2562 56.8098 66.493 58.1198 66.493 59.7298V62.3398C66.493 63.9498 65.2562 65.2598 63.7362 65.2598ZM20.2038 58.8098C19.7223 58.8098 19.3352 59.2198 19.3352 59.7298V62.3398C19.3352 62.8498 19.7223 63.2598 20.2038 63.2598H63.7362C64.2177 63.2598 64.6048 62.8498 64.6048 62.3398V59.7298C64.6048 59.2198 64.2177 58.8098 63.7362 58.8098H20.2038Z" fill="#1E2B4B"/>
<path d="M59.9881 70.4399H54.6822C53.049 70.4399 51.7178 69.0299 51.7178 67.2999V63.8499C51.7178 63.2999 52.1426 62.8499 52.6619 62.8499H61.999C62.5183 62.8499 62.9431 63.2999 62.9431 63.8499V67.2999C62.9431 69.0299 61.6119 70.4399 59.9786 70.4399H59.9881ZM53.606 64.8499V67.2999C53.606 67.9299 54.0875 68.4399 54.6822 68.4399H59.9881C60.5829 68.4399 61.0644 67.9299 61.0644 67.2999V64.8499H53.6154H53.606Z" fill="#1E2B4B"/>
<path d="M28.9178 70.4399H23.6119C21.9786 70.4399 20.6475 69.0299 20.6475 67.2999V63.8499C20.6475 63.2999 21.0723 62.8499 21.5916 62.8499H30.9287C31.448 62.8499 31.8728 63.2999 31.8728 63.8499V67.2999C31.8728 69.0299 30.5416 70.4399 28.9083 70.4399H28.9178ZM22.5357 64.8499V67.2999C22.5357 67.9299 23.0171 68.4399 23.6119 68.4399H28.9178C29.5126 68.4399 29.994 67.9299 29.994 67.2999V64.8499H22.5451H22.5357Z" fill="#1E2B4B"/>
<path d="M28.9933 51.8198C25.9344 51.8198 23.4514 49.1898 23.4514 45.9498C23.4514 42.7098 25.9344 40.0798 28.9933 40.0798C32.0522 40.0798 34.5351 42.7098 34.5351 45.9498C34.5351 49.1898 32.0522 51.8198 28.9933 51.8198ZM28.9933 42.0798C26.9823 42.0798 25.3396 43.8198 25.3396 45.9498C25.3396 48.0798 26.9823 49.8198 28.9933 49.8198C31.0042 49.8198 32.6469 48.0798 32.6469 45.9498C32.6469 43.8198 31.0042 42.0798 28.9933 42.0798Z" fill="#1E2B4B"/>
<path d="M54.6634 51.8198C51.6046 51.8198 49.1216 49.1898 49.1216 45.9498C49.1216 42.7098 51.6046 40.0798 54.6634 40.0798C57.7223 40.0798 60.2053 42.7098 60.2053 45.9498C60.2053 49.1898 57.7223 51.8198 54.6634 51.8198ZM54.6634 42.0798C52.6525 42.0798 51.0098 43.8198 51.0098 45.9498C51.0098 48.0798 52.6525 49.8198 54.6634 49.8198C56.6744 49.8198 58.3171 48.0798 58.3171 45.9498C58.3171 43.8198 56.6744 42.0798 54.6634 42.0798Z" fill="#1E2B4B"/>
<path d="M29.9375 50.7998H28.0493V57.8098H29.9375V50.7998Z" fill="#1E2B4B"/>
<path d="M55.6074 50.7998H53.7192V57.8098H55.6074V50.7998Z" fill="#1E2B4B"/>
<path d="M47.8094 57.8098H45.9212V43.5998C45.9212 43.1698 45.5907 42.8298 45.1942 42.8298H38.746C38.3401 42.8298 38.0191 43.1798 38.0191 43.5998V48.5098H36.1309V43.5998C36.1309 42.0698 37.3015 40.8298 38.746 40.8298H45.1942C46.6387 40.8298 47.8094 42.0698 47.8094 43.5998V57.8098Z" fill="#1E2B4B"/>
<path d="M38.0191 51.3398H36.1309V57.8098H38.0191V51.3398Z" fill="#1E2B4B"/>
<path d="M42.8811 41.5999H40.9929V57.8099H42.8811V41.5999Z" fill="#1E2B4B"/>
<path d="M29.9375 40.8498H28.0493C28.0493 38.3298 29.9847 36.2798 32.3639 36.2798H44.0612V38.2798H32.3639C31.0232 38.2798 29.9375 39.4298 29.9375 40.8498Z" fill="#1E2B4B"/>
<path d="M55.6169 40.8498H53.7287C53.7287 39.4298 52.643 38.2798 51.3023 38.2798H46.8745V36.2798H51.3023C53.6815 36.2798 55.6169 38.3298 55.6169 40.8498Z" fill="#1E2B4B"/>
<path d="M54.8618 38.3099H52.9736V23.3499C52.9736 21.7199 51.7274 20.3999 50.1885 20.3999H33.7612C32.2223 20.3999 30.9761 21.7199 30.9761 23.3499V38.3099H29.0879V23.3499C29.0879 20.6199 31.1838 18.3999 33.7612 18.3999H50.1885C52.7659 18.3999 54.8618 20.6199 54.8618 23.3499V38.3099Z" fill="#1E2B4B"/>
<path d="M53.7004 23.02H39.0103V25.02H53.7004V23.02Z" fill="#1E2B4B"/>
<path d="M36.5273 23.02H30.0225V25.02H36.5273V23.02Z" fill="#1E2B4B"/>
<path d="M28.3608 57.6698C27.4073 56.7598 24.5656 54.2998 22.8662 53.9098C20.6948 53.4098 18.4478 53.4698 18.4195 53.4698C17.9191 53.4998 17.4848 53.0798 17.4471 52.5398C17.3054 50.4498 17.0505 43.4998 19.5524 41.9898C22.0165 40.5098 25.8779 41.3998 26.0384 41.4398L25.623 43.3898C24.7072 43.1798 21.9976 42.8198 20.4776 43.7298C19.5713 44.2798 19.1559 47.9998 19.2786 51.4698C20.2133 51.4998 21.7333 51.5998 23.2627 51.9498C25.7551 52.5198 29.2389 55.8098 29.6259 56.1798L28.3608 57.6598V57.6698Z" fill="#1E2B4B"/>
<path d="M55.2961 57.6698L54.031 56.1898C54.4181 55.8198 57.9018 52.5298 60.3942 51.9598C61.9142 51.6098 63.4342 51.4998 64.3689 51.4798C64.4916 48.0098 64.0762 44.2798 63.1699 43.7398C61.6499 42.8298 58.9403 43.1898 58.0245 43.3998L57.6091 41.4498C57.7696 41.4098 61.631 40.5198 64.0951 41.9998C66.597 43.4998 66.3326 50.4498 66.2004 52.5498C66.1627 53.0898 65.7284 53.5098 65.228 53.4798C65.2091 53.4798 62.9622 53.4098 60.7908 53.9198C59.0914 54.3098 56.2402 56.7698 55.2867 57.6798L55.2961 57.6698Z" fill="#1E2B4B"/>
</g>
<defs>
<clipPath id="clip0_751_450">
<rect width="83.8738" height="88.84" fill="white"/>
</clipPath>
</defs>
</svg>
