<svg width="84" height="90" viewBox="0 0 84 90" fill="none" xmlns="http://www.w3.org/2000/svg">
<path d="M41.9369 89.6266C65.098 89.6266 83.8738 69.7391 83.8738 45.2066C83.8738 20.6741 65.098 0.786621 41.9369 0.786621C18.7758 0.786621 0 20.6741 0 45.2066C0 69.7391 18.7758 89.6266 41.9369 89.6266Z" fill="#1E2B4B"/>
<path d="M63.7362 65.0464H20.2038C19.203 65.0464 18.3911 64.1864 18.3911 63.1264V60.5164C18.3911 59.4564 19.203 58.5964 20.2038 58.5964H63.7362C64.7369 58.5964 65.5489 59.4564 65.5489 60.5164V63.1264C65.5489 64.1864 64.7369 65.0464 63.7362 65.0464Z" stroke="#CCFF66" stroke-width="2" stroke-linejoin="round"/>
<path d="M59.9881 70.2265H54.6822C53.5682 70.2265 52.6619 69.2665 52.6619 68.0865V64.6365H61.999V68.0865C61.999 69.2665 61.0927 70.2265 59.9786 70.2265H59.9881Z" stroke="#CCFF66" stroke-width="2" stroke-linejoin="round"/>
<path d="M28.9178 70.2265H23.6119C22.4979 70.2265 21.5916 69.2665 21.5916 68.0865V64.6365H30.9287V68.0865C30.9287 69.2665 30.0318 70.2265 28.9083 70.2265H28.9178Z" stroke="#CCFF66" stroke-width="2" stroke-linejoin="round"/>
<path d="M28.9933 51.6065C31.5325 51.6065 33.591 49.4261 33.591 46.7365C33.591 44.0468 31.5325 41.8665 28.9933 41.8665C26.454 41.8665 24.3955 44.0468 24.3955 46.7365C24.3955 49.4261 26.454 51.6065 28.9933 51.6065Z" stroke="#CCFF66" stroke-width="2" stroke-linejoin="round"/>
<path d="M54.6634 51.6065C57.2027 51.6065 59.2612 49.4261 59.2612 46.7365C59.2612 44.0468 57.2027 41.8665 54.6634 41.8665C52.1242 41.8665 50.0657 44.0468 50.0657 46.7365C50.0657 49.4261 52.1242 51.6065 54.6634 51.6065Z" stroke="#CCFF66" stroke-width="2" stroke-linejoin="round"/>
<path d="M28.9934 58.5964V51.5864" stroke="#CCFF66" stroke-width="2" stroke-linejoin="round"/>
<path d="M54.6633 58.5964V51.5864" stroke="#CCFF66" stroke-width="2" stroke-linejoin="round"/>
<path d="M37.075 49.2965V44.3865C37.075 43.4065 37.8208 42.6165 38.746 42.6165H45.1942C46.1194 42.6165 46.8653 43.4065 46.8653 44.3865V58.5965" stroke="#CCFF66" stroke-width="2" stroke-linejoin="round"/>
<path d="M37.075 52.1265V58.5965" stroke="#CCFF66" stroke-width="2" stroke-linejoin="round"/>
<path d="M41.937 42.3865V58.5965" stroke="#CCFF66" stroke-width="2" stroke-linejoin="round"/>
<path d="M28.9934 41.6364C28.9934 39.6664 30.504 38.0664 32.3638 38.0664H44.0612" stroke="#CCFF66" stroke-width="2" stroke-linejoin="round"/>
<path d="M46.8652 38.0664H51.2931C53.1529 38.0664 54.6635 39.6664 54.6635 41.6364" stroke="#CCFF66" stroke-width="2" stroke-linejoin="round"/>
<path d="M53.9177 39.0965V24.1365C53.9177 21.9565 52.2466 20.1865 50.1885 20.1865H33.7612C31.703 20.1865 30.032 21.9565 30.032 24.1365V39.0965" stroke="#CCFF66" stroke-width="2" stroke-linejoin="round"/>
<path d="M39.0103 24.8066H53.7005" stroke="#CCFF66" stroke-width="2" stroke-linejoin="round"/>
<path d="M36.5273 24.8066H30.0225" stroke="#CCFF66" stroke-width="2" stroke-linejoin="round"/>
<path d="M28.9934 57.7166C28.9934 57.7166 25.3869 54.2566 23.0644 53.7266C20.7419 53.1866 18.3911 53.2666 18.3911 53.2666C18.3911 53.2666 17.8436 44.9666 20.015 43.6566C22.1864 42.3466 25.8306 43.2066 25.8306 43.2066" stroke="#CCFF66" stroke-width="2" stroke-linejoin="round"/>
<path d="M54.6633 57.7166C54.6633 57.7166 58.2698 54.2566 60.5923 53.7266C62.9148 53.1866 65.2656 53.2666 65.2656 53.2666C65.2656 53.2666 65.8132 44.9666 63.6417 43.6566C61.4703 42.3466 57.8261 43.2066 57.8261 43.2066" stroke="#CCFF66" stroke-width="2" stroke-linejoin="round"/>
</svg>
