<svg width="84" height="89" viewBox="0 0 84 89" fill="none" xmlns="http://www.w3.org/2000/svg">
<path d="M41.9369 88.84C65.098 88.84 83.8738 68.9525 83.8738 44.42C83.8738 19.8875 65.098 0 41.9369 0C18.7758 0 0 19.8875 0 44.42C0 68.9525 18.7758 88.84 41.9369 88.84Z" fill="#CCFF66"/>
<path d="M61.0079 44.11C66.3159 44.11 70.6188 39.5523 70.6188 33.93C70.6188 28.3077 66.3159 23.75 61.0079 23.75C55.6999 23.75 51.397 28.3077 51.397 33.93C51.397 39.5523 55.6999 44.11 61.0079 44.11Z" fill="#CCFF66" stroke="#1E2B4B" stroke-width="2" stroke-linejoin="round"/>
<path d="M58.1943 36.48V37.15C58.1943 37.81 58.6947 38.34 59.3178 38.34H62.6977C63.3208 38.34 63.8212 37.81 63.8212 37.15V35.12C63.8212 34.46 63.3208 33.93 62.6977 33.93H59.3178C58.6947 33.93 58.1943 33.4 58.1943 32.74V30.71C58.1943 30.05 58.6947 29.52 59.3178 29.52H62.6977C63.3208 29.52 63.8212 30.05 63.8212 30.71V31.55" fill="#CCFF66"/>
<path d="M58.1943 36.48V37.15C58.1943 37.81 58.6947 38.34 59.3178 38.34H62.6977C63.3208 38.34 63.8212 37.81 63.8212 37.15V35.12C63.8212 34.46 63.3208 33.93 62.6977 33.93H59.3178C58.6947 33.93 58.1943 33.4 58.1943 32.74V30.71C58.1943 30.05 58.6947 29.52 59.3178 29.52H62.6977C63.3208 29.52 63.8212 30.05 63.8212 30.71V31.55" stroke="#1E2B4B" stroke-width="2" stroke-linejoin="round"/>
<path d="M61.0078 27.49V29.13" stroke="#1E2B4B" stroke-width="2" stroke-linejoin="round"/>
<path d="M61.0078 38.72V40.37" stroke="#1E2B4B" stroke-width="2" stroke-linejoin="round"/>
<path d="M22.8946 63.89C28.2026 63.89 32.5056 59.3323 32.5056 53.71C32.5056 48.0878 28.2026 43.53 22.8946 43.53C17.5867 43.53 13.2837 48.0878 13.2837 53.71C13.2837 59.3323 17.5867 63.89 22.8946 63.89Z" fill="#CCFF66" stroke="#1E2B4B" stroke-width="2" stroke-linejoin="round"/>
<path d="M20.0811 56.26V56.93C20.0811 57.59 20.5814 58.12 21.2045 58.12H24.5844C25.2075 58.12 25.7079 57.59 25.7079 56.93V54.9001C25.7079 54.2401 25.2075 53.71 24.5844 53.71H21.2045C20.5814 53.71 20.0811 53.1801 20.0811 52.5201V50.4901C20.0811 49.8301 20.5814 49.3 21.2045 49.3H24.5844C25.2075 49.3 25.7079 49.8301 25.7079 50.4901V51.3301" fill="#CCFF66"/>
<path d="M20.0811 56.26V56.93C20.0811 57.59 20.5814 58.12 21.2045 58.12H24.5844C25.2075 58.12 25.7079 57.59 25.7079 56.93V54.9001C25.7079 54.2401 25.2075 53.71 24.5844 53.71H21.2045C20.5814 53.71 20.0811 53.1801 20.0811 52.5201V50.4901C20.0811 49.8301 20.5814 49.3 21.2045 49.3H24.5844C25.2075 49.3 25.7079 49.8301 25.7079 50.4901V51.3301" stroke="#1E2B4B" stroke-width="2" stroke-linejoin="round"/>
<path d="M22.8945 47.27V48.92" stroke="#1E2B4B" stroke-width="2" stroke-linejoin="round"/>
<path d="M22.8945 58.51V60.15" stroke="#1E2B4B" stroke-width="2" stroke-linejoin="round"/>
<path d="M36.4517 42.9599V46.8799L44.6936 37.9099" fill="#CCFF66"/>
<path d="M36.4517 42.9599V46.8799L44.6936 37.9099" stroke="#1E2B4B" stroke-width="2" stroke-linejoin="round"/>
<path d="M47.5547 44.86V40.72L39.0767 49.98" fill="#CCFF66"/>
<path d="M47.5547 44.86V40.72L39.0767 49.98" stroke="#1E2B4B" stroke-width="2" stroke-linejoin="round"/>
<path d="M41.9373 23.7498C42.6308 23.7498 43.1929 23.1544 43.1929 22.4198C43.1929 21.6853 42.6308 21.0898 41.9373 21.0898C41.2438 21.0898 40.6816 21.6853 40.6816 22.4198C40.6816 23.1544 41.2438 23.7498 41.9373 23.7498Z" fill="#CCFF66" stroke="#1E2B4B" stroke-width="2" stroke-linejoin="round"/>
<path d="M58.4307 44.1099V67.2599C58.4307 69.4199 56.7785 71.1599 54.7487 71.1599H48.0361" fill="#CCFF66"/>
<path d="M58.4307 44.1099V67.2599C58.4307 69.4199 56.7785 71.1599 54.7487 71.1599H48.0361" stroke="#1E2B4B" stroke-width="2" stroke-linejoin="round"/>
<path d="M43.3157 71.1599H30.1361C28.0968 71.1599 26.4541 69.4099 26.4541 67.2599V63.3899" fill="#CCFF66"/>
<path d="M43.3157 71.1599H30.1361C28.0968 71.1599 26.4541 69.4099 26.4541 67.2599V63.3899" stroke="#1E2B4B" stroke-width="2" stroke-linejoin="round"/>
<path d="M25.9438 44.2899V33.8799" stroke="#1E2B4B" stroke-width="2" stroke-linejoin="round"/>
<path d="M25.9438 28.3899V21.5799C25.9438 19.4199 27.596 17.6799 29.6258 17.6799H54.2385C56.2778 17.6799 57.9205 19.4299 57.9205 21.5799V23.7499" fill="#CCFF66"/>
<path d="M25.9438 28.3899V21.5799C25.9438 19.4199 27.596 17.6799 29.6258 17.6799H54.2385C56.2778 17.6799 57.9205 19.4299 57.9205 21.5799V23.7499" stroke="#1E2B4B" stroke-width="2" stroke-linejoin="round"/>
</svg>
