<svg width="89" height="90" viewBox="0 0 89 90" fill="none" xmlns="http://www.w3.org/2000/svg">
<g clip-path="url(#clip0_751_141)">
<path d="M44.42 89.6266C68.9525 89.6266 88.84 69.7391 88.84 45.2066C88.84 20.6741 68.9525 0.786621 44.42 0.786621C19.8875 0.786621 0 20.6741 0 45.2066C0 69.7391 19.8875 89.6266 44.42 89.6266Z" fill="#1E2B4B"/>
<path d="M64.6199 44.8966C70.2422 44.8966 74.7999 40.3389 74.7999 34.7166C74.7999 29.0944 70.2422 24.5366 64.6199 24.5366C58.9977 24.5366 54.4399 29.0944 54.4399 34.7166C54.4399 40.3389 58.9977 44.8966 64.6199 44.8966Z" stroke="#CCFF66" stroke-width="2" stroke-linejoin="round"/>
<path d="M61.6401 37.2666V37.9366C61.6401 38.5966 62.1701 39.1266 62.8301 39.1266H66.4101C67.0701 39.1266 67.6001 38.5966 67.6001 37.9366V35.9066C67.6001 35.2466 67.0701 34.7166 66.4101 34.7166H62.8301C62.1701 34.7166 61.6401 34.1866 61.6401 33.5266V31.4966C61.6401 30.8366 62.1701 30.3066 62.8301 30.3066H66.4101C67.0701 30.3066 67.6001 30.8366 67.6001 31.4966V32.3366" stroke="#CCFF66" stroke-width="2" stroke-linejoin="round"/>
<path d="M64.6201 28.2766V29.9166" stroke="#CCFF66" stroke-width="2" stroke-linejoin="round"/>
<path d="M64.6201 39.5066V41.1566" stroke="#CCFF66" stroke-width="2" stroke-linejoin="round"/>
<path d="M24.2498 64.6767C29.8721 64.6767 34.4298 60.1189 34.4298 54.4967C34.4298 48.8744 29.8721 44.3167 24.2498 44.3167C18.6276 44.3167 14.0698 48.8744 14.0698 54.4967C14.0698 60.1189 18.6276 64.6767 24.2498 64.6767Z" stroke="#CCFF66" stroke-width="2" stroke-linejoin="round"/>
<path d="M21.27 57.0467V57.7167C21.27 58.3767 21.8 58.9067 22.46 58.9067H26.04C26.7 58.9067 27.23 58.3767 27.23 57.7167V55.6867C27.23 55.0267 26.7 54.4967 26.04 54.4967H22.46C21.8 54.4967 21.27 53.9667 21.27 53.3067V51.2767C21.27 50.6167 21.8 50.0867 22.46 50.0867H26.04C26.7 50.0867 27.23 50.6167 27.23 51.2767V52.1167" stroke="#CCFF66" stroke-width="2" stroke-linejoin="round"/>
<path d="M24.25 48.0566V49.7066" stroke="#CCFF66" stroke-width="2" stroke-linejoin="round"/>
<path d="M24.25 59.2966V60.9366" stroke="#CCFF66" stroke-width="2" stroke-linejoin="round"/>
<path d="M38.6099 43.7465V47.6665L47.3399 38.6965" stroke="#CCFF66" stroke-width="2" stroke-linejoin="round"/>
<path d="M50.3696 45.6466V41.5066L41.3896 50.7666" stroke="#CCFF66" stroke-width="2" stroke-linejoin="round"/>
<path d="M44.4198 24.5365C45.1544 24.5365 45.7498 23.941 45.7498 23.2065C45.7498 22.4719 45.1544 21.8765 44.4198 21.8765C43.6853 21.8765 43.0898 22.4719 43.0898 23.2065C43.0898 23.941 43.6853 24.5365 44.4198 24.5365Z" stroke="#CCFF66" stroke-width="2" stroke-linejoin="round"/>
<path d="M61.8899 44.8965V68.0465C61.8899 70.2065 60.1399 71.9465 57.9899 71.9465H50.8799" stroke="#CCFF66" stroke-width="2" stroke-linejoin="round"/>
<path d="M45.88 71.9465H31.92C29.76 71.9465 28.02 70.1965 28.02 68.0465V64.1765" stroke="#CCFF66" stroke-width="2" stroke-linejoin="round"/>
<path d="M27.48 45.0765V34.6665" stroke="#CCFF66" stroke-width="2" stroke-linejoin="round"/>
<path d="M27.48 29.1766V22.3666C27.48 20.2066 29.23 18.4666 31.38 18.4666H57.45C59.61 18.4666 61.35 20.2166 61.35 22.3666V24.5366" stroke="#CCFF66" stroke-width="2" stroke-linejoin="round"/>
</g>
<defs>
<clipPath id="clip0_751_141">
<rect width="88.8416" height="88.8416" fill="white" transform="translate(0 0.786621)"/>
</clipPath>
</defs>
</svg>
