<svg width="89" height="90" viewBox="0 0 89 90" fill="none" xmlns="http://www.w3.org/2000/svg">
<g clip-path="url(#clip0_748_3219)">
<path d="M44.4208 89.6282C68.9537 89.6282 88.8416 69.7403 88.8416 45.2074C88.8416 20.6745 68.9537 0.786621 44.4208 0.786621C19.8879 0.786621 0 20.6745 0 45.2074C0 69.7403 19.8879 89.6282 44.4208 89.6282Z" fill="#1E2B4B"/>
<path d="M61.5552 24.8618V35.5585" stroke="#CCFF66" stroke-width="2.04368" stroke-linejoin="round"/>
<path d="M66.9089 30.2102H56.207" stroke="#CCFF66" stroke-width="2.04368" stroke-linejoin="round"/>
<path d="M61.5555 47.2305V59.1722C61.5555 60.1215 61.1094 61.0137 60.3468 61.5792C57.9035 63.3844 50.1118 67.1298 43.7778 67.1298" stroke="#CCFF66" stroke-width="2.04368" stroke-linejoin="round"/>
<path d="M38.8029 67.1298C32.692 67.1298 24.641 63.3066 22.483 62.2276C22.1458 62.0564 21.9331 61.714 21.9331 61.3302V48.2057C21.9331 47.4691 22.6957 46.9815 23.3649 47.2979C26.3736 48.7297 33.7347 51.7021 41.6146 50.9603C51.8911 49.9954 60.5906 44.0194 59.802 42.349C59.0135 40.6786 55.2318 37.9552 49.6086 37.5194C43.9853 37.0785 37.3971 37.343 32.1266 34.0075C26.8561 30.6719 26.6797 27.6839 29.2268 25.8371C31.7738 23.9904 35.291 23.29 37.8381 23.29" stroke="#CCFF66" stroke-width="2.04368" stroke-linejoin="round"/>
<path d="M41.7026 23.2898C44.5662 23.2328 48.0522 24.4155 50.0649 25.2196C51.0661 25.619 51.7197 26.5787 51.7197 27.6577V33.2239" stroke="#CCFF66" stroke-width="2.04368" stroke-linejoin="round"/>
<path d="M27.6396 28.3997V44.3306" stroke="#CCFF66" stroke-width="2.04368" stroke-linejoin="round"/>
</g>
<defs>
<clipPath id="clip0_748_3219">
<rect width="88.8416" height="88.8416" fill="white" transform="translate(0 0.786621)"/>
</clipPath>
</defs>
</svg>
