<svg width="89" height="89" viewBox="0 0 89 89" fill="none" xmlns="http://www.w3.org/2000/svg">
<g clip-path="url(#clip0_751_122)">
<path d="M44.4208 88.8416C68.9537 88.8416 88.8416 68.9537 88.8416 44.4208C88.8416 19.8879 68.9537 0 44.4208 0C19.8879 0 0 19.8879 0 44.4208C0 68.9537 19.8879 88.8416 44.4208 88.8416Z" fill="#CCFF66"/>
<path d="M61.5552 24.0752V34.7719" stroke="#1E2B4B" stroke-width="2.04368" stroke-linejoin="round"/>
<path d="M66.9089 29.4236H56.207" stroke="#1E2B4B" stroke-width="2.04368" stroke-linejoin="round"/>
<path d="M61.5555 46.4438V58.3855C61.5555 59.3349 61.1094 60.2271 60.3468 60.7925C57.9035 62.5978 50.1118 66.3432 43.7778 66.3432" fill="#CCFF66"/>
<path d="M61.5555 46.4438V58.3855C61.5555 59.3349 61.1094 60.2271 60.3468 60.7925C57.9035 62.5978 50.1118 66.3432 43.7778 66.3432" stroke="#1E2B4B" stroke-width="2.04368" stroke-linejoin="round"/>
<path d="M38.8029 66.3432C32.692 66.3432 24.641 62.52 22.483 61.441C22.1458 61.2698 21.9331 60.9274 21.9331 60.5435V47.4191C21.9331 46.6825 22.6957 46.1949 23.3649 46.5113C26.3736 47.943 33.7347 50.9155 41.6146 50.1737C51.8911 49.2088 60.5906 43.2328 59.802 41.5624C59.0135 39.892 55.2318 37.1686 49.6086 36.7328C43.9853 36.2919 37.3971 36.5564 32.1266 33.2208C26.8561 29.8853 26.6797 26.8973 29.2268 25.0505C31.7738 23.2037 35.291 22.5034 37.8381 22.5034" fill="#CCFF66"/>
<path d="M38.8029 66.3432C32.692 66.3432 24.641 62.52 22.483 61.441C22.1458 61.2698 21.9331 60.9274 21.9331 60.5435V47.4191C21.9331 46.6825 22.6957 46.1949 23.3649 46.5113C26.3736 47.943 33.7347 50.9155 41.6146 50.1737C51.8911 49.2088 60.5906 43.2328 59.802 41.5624C59.0135 39.892 55.2318 37.1686 49.6086 36.7328C43.9853 36.2919 37.3971 36.5564 32.1266 33.2208C26.8561 29.8853 26.6797 26.8973 29.2268 25.0505C31.7738 23.2037 35.291 22.5034 37.8381 22.5034" stroke="#1E2B4B" stroke-width="2.04368" stroke-linejoin="round"/>
<path d="M41.7026 22.5032C44.5662 22.4461 48.0522 23.6289 50.0649 24.433C51.0661 24.8324 51.7197 25.7921 51.7197 26.8711V32.4373" fill="#CCFF66"/>
<path d="M41.7026 22.5032C44.5662 22.4461 48.0522 23.6289 50.0649 24.433C51.0661 24.8324 51.7197 25.7921 51.7197 26.8711V32.4373" stroke="#1E2B4B" stroke-width="2.04368" stroke-linejoin="round"/>
<path d="M27.6396 27.613V43.5439" stroke="#1E2B4B" stroke-width="2.04368" stroke-linejoin="round"/>
</g>
<defs>
<clipPath id="clip0_751_122">
<rect width="88.8416" height="88.8416" fill="white"/>
</clipPath>
</defs>
</svg>
