<svg width="88" height="89" viewBox="0 0 88 89" fill="none" xmlns="http://www.w3.org/2000/svg">
<g clip-path="url(#clip0_748_3288)">
<path d="M44 88.2134C68.3005 88.2134 88 68.5139 88 44.2134C88 19.9128 68.3005 0.213379 44 0.213379C19.6995 0.213379 0 19.9128 0 44.2134C0 68.5139 19.6995 88.2134 44 88.2134Z" fill="#CCFF66"/>
<path d="M22.4189 37.1173C23.6213 26.0338 33.1222 17.5863 44.1903 17.6839C55.1145 17.7816 64.3944 26.1726 65.5814 37.1173" stroke="#1E2B4B" stroke-width="2.07287" stroke-linejoin="round"/>
<path d="M22.6089 44.5012C22.8093 45.8629 23.2049 47.5431 23.9808 49.357C25.7176 53.4163 28.4255 55.8005 29.5354 56.8179C32.2382 59.2946 35.8659 63.1536 41.0043 69.4995C42.3557 71.1694 44.8992 71.1438 46.2301 69.4635C49.3336 65.5378 52.2933 62.7065 54.657 60.7026C57.9558 57.9021 61.5835 55.446 63.7931 50.5029C64.8413 48.1546 65.2318 46.0016 65.3911 44.5064" stroke="#1E2B4B" stroke-width="2.07287" stroke-linejoin="round"/>
<path d="M45.5878 53.9559C44.4214 54.9373 42.7 54.8602 41.621 53.7863C40.8348 53.0053 39.9459 52.1061 38.9747 51.1041C33.6616 45.6266 33.0244 44.3574 32.6545 43.34C32.3719 42.5641 31.0976 38.7463 32.8806 34.9644C35.0644 30.345 40.7166 28.1355 45.5159 28.8754C46.3329 28.9987 51.2863 29.8517 53.7373 34.2039C56.3116 38.7771 54.6211 44.008 53.28 45.8526C51.3634 48.4886 47.9874 51.9416 45.5878 53.9559Z" stroke="#1E2B4B" stroke-width="2.07287" stroke-linejoin="round"/>
</g>
<defs>
<clipPath id="clip0_748_3288">
<rect width="88" height="88" fill="white" transform="translate(0 0.213379)"/>
</clipPath>
</defs>
</svg>
