<svg width="88" height="88" viewBox="0 0 88 88" fill="none" xmlns="http://www.w3.org/2000/svg">
<g clip-path="url(#clip0_748_3253)">
<path d="M44 88C68.3005 88 88 68.3005 88 44C88 19.6995 68.3005 0 44 0C19.6995 0 0 19.6995 0 44C0 68.3005 19.6995 88 44 88Z" fill="#1E2B4B"/>
<path d="M22.4189 36.9039C23.6213 25.8204 33.1222 17.3729 44.1903 17.4706C55.1145 17.5682 64.3944 25.9592 65.5814 36.9039" stroke="#CCFF66" stroke-width="2.07287" stroke-linejoin="round"/>
<path d="M22.6089 44.2878C22.8093 45.6495 23.2049 47.3298 23.9808 49.1436C25.7176 53.2029 28.4255 55.5872 29.5354 56.6046C32.2382 59.0813 35.8659 62.9402 41.0043 69.2861C42.3557 70.9561 44.8992 70.9304 46.2301 69.2501C49.3336 65.3244 52.2933 62.4931 54.657 60.4892C57.9558 57.6888 61.5835 55.2326 63.7931 50.2895C64.8413 47.9412 65.2318 45.7882 65.3911 44.293" stroke="#CCFF66" stroke-width="2.07287" stroke-linejoin="round"/>
<path d="M45.5878 53.7425C44.4214 54.7239 42.7 54.6469 41.621 53.5729C40.8348 52.7919 39.9459 51.8927 38.9747 50.8907C33.6616 45.4132 33.0244 44.144 32.6545 43.1266C32.3719 42.3507 31.0976 38.5329 32.8806 34.751C35.0644 30.1316 40.7166 27.9221 45.5159 28.662C46.3329 28.7854 51.2863 29.6383 53.7373 33.9905C56.3116 38.5637 54.6211 43.7946 53.28 45.6393C51.3634 48.2753 47.9874 51.7282 45.5878 53.7425Z" stroke="#CCFF66" stroke-width="2.07287" stroke-linejoin="round"/>
</g>
<defs>
<clipPath id="clip0_748_3253">
<rect width="88" height="88" fill="white"/>
</clipPath>
</defs>
</svg>
